<?xml version='1.0' encoding='UTF-8' standalone='no'?>
<!-- Created with Fritzing (http://www.fritzing.org/) -->
<svg xmlns="http://www.w3.org/2000/svg" width="2.16535in" x="0in" version="1.2" y="0in"  height="1.5748in" viewBox="0 0 155.906 113.386" baseProfile="tiny" xmlns:svg="http://www.w3.org/2000/svg">
 <g transform="matrix(-1, 0, 0, 1, 155.906, 0)">
  <g partID="12040">
   <g id="board">
    <rect width="155.33" x="0.576" y="0.576" fill="none" height="112.81" stroke="black" fill-opacity="0.5" id="boardoutline" stroke-width="0.5"/>
   </g>
  </g>
  <g partID="398260">
   <g transform="translate(81.504,74.16)">
    <g  id="groundplane">
     <g  id="connector0pad">
      <polygon fill="black" points="19.728,0,19.728,1.872,19.584,1.872,19.584,2.304,19.44,2.304,19.44,2.736,19.296,2.736,19.296,3.024,19.152,3.024,19.152,3.168,19.008,3.168,19.008,3.456,18.864,3.456,18.864,3.6,18.72,3.6,18.72,3.888,18.576,3.888,18.576,4.032,18.432,4.032,18.432,4.176,18.288,4.176,18.288,4.32,18.144,4.32,18.144,4.464,17.856,4.464,17.856,4.608,17.712,4.608,17.712,4.752,17.568,4.752,17.568,4.896,17.28,4.896,17.28,5.04,17.136,5.04,17.136,5.184,16.848,5.184,16.848,5.328,16.416,5.328,16.416,5.472,15.84,5.472,15.84,5.616,25.776,5.616,25.776,4.464,25.488,4.464,25.488,4.32,25.344,4.32,25.344,4.176,25.2,4.176,25.2,4.032,25.056,4.032,25.056,3.744,24.912,3.744,24.912,3.6,24.768,3.6,24.768,3.456,24.624,3.456,24.624,3.168,24.48,3.168,24.48,3.024,24.336,3.024,24.336,2.736,24.192,2.736,24.192,2.304,24.048,2.304,24.048,1.872,23.904,1.872,23.904,1.584,23.616,1.584,23.616,1.44,23.472,1.44,23.472,1.296,23.184,1.296,23.184,1.152,22.896,1.152,22.896,1.008,22.752,1.008,22.752,0.864,22.464,0.864,22.464,0.72,22.32,0.72,22.32,0.576,22.032,0.576,22.032,0.432,21.744,0.432,21.744,0.288,21.6,0.288,21.6,0.144,21.312,0.144,21.312,0"  stroke="none" stroke-width="0"/>
      <polygon fill="black" points="7.632,3.888,7.632,4.176,7.488,4.176,7.488,4.32,7.2,4.32,7.2,4.464,7.056,4.464,7.056,4.608,6.912,4.608,6.912,4.752,6.768,4.752,6.768,4.896,6.48,4.896,6.48,5.04,6.192,5.04,6.192,5.184,5.904,5.184,5.904,5.328,5.472,5.328,5.472,5.472,4.752,5.472,4.752,5.616,13.968,5.616,13.968,5.472,13.392,5.472,13.392,5.328,12.96,5.328,12.96,5.184,12.672,5.184,12.672,5.04,12.384,5.04,12.384,4.896,12.24,4.896,12.24,4.752,11.952,4.752,11.952,4.608,11.808,4.608,11.808,4.464,11.664,4.464,11.664,4.32,11.52,4.32,11.52,4.176,11.376,4.176,11.376,4.032,11.232,4.032,11.232,3.888"  stroke="none" stroke-width="0"/>
      <polygon fill="black" points="0,4.752,0,5.616,3.456,5.616,3.456,5.472,2.592,5.472,2.592,5.328,2.304,5.328,2.304,5.184,2.016,5.184,2.016,5.04,1.728,5.04,1.728,4.896,1.44,4.896,1.44,4.752"  stroke="none" stroke-width="0"/>
      <polygon fill="black" points="0,5.616,0,5.76,25.776,5.76,25.776,5.616"  stroke="none" stroke-width="0"/>
      <polygon fill="black" points="0,5.616,0,5.76,25.776,5.76,25.776,5.616"  stroke="none" stroke-width="0"/>
      <polygon fill="black" points="0,5.616,0,5.76,25.776,5.76,25.776,5.616"  stroke="none" stroke-width="0"/>
      <polygon fill="black" points="0,5.76,0,10.368,23.472,10.368,23.472,10.512,23.904,10.512,23.904,10.656,24.192,10.656,24.192,10.8,24.48,10.8,24.48,10.944,25.92,10.944,25.92,8.064,25.776,8.064,25.776,5.76"  stroke="none" stroke-width="0"/>
      <polygon fill="black" points="0,10.368,0,11.808,11.088,11.808,11.088,11.952,18.432,11.952,18.432,11.808,18.576,11.808,18.576,11.664,18.72,11.664,18.72,11.52,18.864,11.52,18.864,11.376,19.152,11.376,19.152,11.232,19.296,11.232,19.296,11.088,19.44,11.088,19.44,10.944,19.728,10.944,19.728,10.8,20.016,10.8,20.016,10.656,20.304,10.656,20.304,10.512,20.736,10.512,20.736,10.368"  stroke="none" stroke-width="0"/>
     </g>
    </g>
   </g>
  </g>
  <g partID="398350">
   <g transform="translate(45.216,35.856)">
    <g  id="groundplane">
     <polygon fill="black" points="0,0,0,0.864,3.312,0.864,3.312,0.72,2.736,0.72,2.736,0.576,2.448,0.576,2.448,0.432,2.16,0.432,2.16,0.288,1.872,0.288,1.872,0.144,1.584,0.144,1.584,0"  stroke="none" stroke-width="0"/>
     <polygon fill="black" points="7.056,0,7.056,0.144,6.912,0.144,6.912,0.288,6.624,0.288,6.624,0.432,6.336,0.432,6.336,0.576,5.904,0.576,5.904,0.72,5.328,0.72,5.328,0.864,10.512,0.864,10.512,0.72,9.936,0.72,9.936,0.576,9.648,0.576,9.648,0.432,9.36,0.432,9.36,0.288,9.072,0.288,9.072,0.144,8.784,0.144,8.784,0"  stroke="none" stroke-width="0"/>
     <polygon fill="black" points="14.256,0,14.256,0.144,14.112,0.144,14.112,0.288,13.824,0.288,13.824,0.432,13.536,0.432,13.536,0.576,13.104,0.576,13.104,0.72,12.528,0.72,12.528,0.864,17.712,0.864,17.712,0.72,17.136,0.72,17.136,0.576,16.848,0.576,16.848,0.432,16.56,0.432,16.56,0.288,16.272,0.288,16.272,0.144,15.984,0.144,15.984,0"  stroke="none" stroke-width="0"/>
     <polygon fill="black" points="21.456,0,21.456,0.144,21.312,0.144,21.312,0.288,21.024,0.288,21.024,0.432,20.736,0.432,20.736,0.576,20.304,0.576,20.304,0.72,19.728,0.72,19.728,0.864,24.912,0.864,24.912,0.72,24.336,0.72,24.336,0.576,24.048,0.576,24.048,0.432,23.76,0.432,23.76,0.288,23.472,0.288,23.472,0.144,23.184,0.144,23.184,0"  stroke="none" stroke-width="0"/>
     <polygon fill="black" points="28.656,0,28.656,0.144,28.512,0.144,28.512,0.288,28.224,0.288,28.224,0.432,27.936,0.432,27.936,0.576,27.504,0.576,27.504,0.72,26.928,0.72,26.928,0.864,32.112,0.864,32.112,0.72,31.536,0.72,31.536,0.576,31.248,0.576,31.248,0.432,30.96,0.432,30.96,0.288,30.672,0.288,30.672,0.144,30.384,0.144,30.384,0"  stroke="none" stroke-width="0"/>
     <polygon fill="black" points="0,0.864,0,1.008,32.112,1.008,32.112,0.864"  stroke="none" stroke-width="0"/>
     <polygon fill="black" points="0,0.864,0,1.008,32.112,1.008,32.112,0.864"  stroke="none" stroke-width="0"/>
     <polygon fill="black" points="0,0.864,0,1.008,32.112,1.008,32.112,0.864"  stroke="none" stroke-width="0"/>
     <polygon fill="black" points="0,0.864,0,1.008,32.112,1.008,32.112,0.864"  stroke="none" stroke-width="0"/>
     <polygon fill="black" points="0,0.864,0,1.008,32.112,1.008,32.112,0.864"  stroke="none" stroke-width="0"/>
     <polygon fill="black" points="0,1.008,0,1.44,0.144,1.44,0.144,1.728,0.288,1.728,0.288,12.384,19.728,12.384,19.728,12.528,20.304,12.528,20.304,12.672,20.736,12.672,20.736,12.816,21.024,12.816,21.024,12.96,21.312,12.96,21.312,13.104,21.456,13.104,21.456,13.248,23.184,13.248,23.184,13.104,23.472,13.104,23.472,12.96,23.76,12.96,23.76,12.816,24.048,12.816,24.048,12.672,24.48,12.672,24.48,12.528,25.056,12.528,25.056,12.384,25.344,12.384,25.344,12.24,25.488,12.24,25.488,11.952,25.632,11.952,25.632,11.808,25.776,11.808,25.776,11.52,25.92,11.52,25.92,11.376,26.064,11.376,26.064,11.088,26.208,11.088,26.208,10.944,26.352,10.944,26.352,10.656,26.496,10.656,26.496,10.512,26.64,10.512,26.64,10.224,26.784,10.224,26.784,10.08,26.928,10.08,26.928,9.792,27.072,9.792,27.072,9.648,27.216,9.648,27.216,9.36,27.36,9.36,27.36,9.216,27.504,9.216,27.504,8.928,27.648,8.928,27.648,8.784,27.792,8.784,27.792,8.496,27.936,8.496,27.936,8.352,28.08,8.352,28.08,8.064,28.224,8.064,28.224,7.92,28.368,7.92,28.368,7.632,28.512,7.632,28.512,7.488,28.656,7.488,28.656,7.2,28.8,7.2,28.8,7.056,28.944,7.056,28.944,6.768,29.088,6.768,29.088,6.624,29.232,6.624,29.232,6.336,29.376,6.336,29.376,6.192,29.52,6.192,29.52,5.904,29.664,5.904,29.664,5.76,29.808,5.76,29.808,5.472,29.952,5.472,29.952,5.328,30.096,5.328,30.096,5.04,30.24,5.04,30.24,4.896,30.384,4.896,30.384,4.608,30.528,4.608,30.528,4.464,30.672,4.464,30.672,4.176,30.816,4.176,30.816,4.032,30.96,4.032,30.96,3.744,31.104,3.744,31.104,3.6,31.248,3.6,31.248,3.312,31.392,3.312,31.392,3.168,31.536,3.168,31.536,2.88,31.68,2.88,31.68,2.736,31.824,2.736,31.824,2.448,31.968,2.448,31.968,2.304,32.112,2.304,32.112,1.008"  stroke="none" stroke-width="0"/>
     <polygon fill="black" points="0.288,12.384,0.288,13.104,1.872,13.104,1.872,12.96,2.16,12.96,2.16,12.816,2.448,12.816,2.448,12.672,2.88,12.672,2.88,12.528,3.456,12.528,3.456,12.384"  stroke="none" stroke-width="0"/>
     <polygon fill="black" points="5.328,12.384,5.328,12.528,5.904,12.528,5.904,12.672,6.336,12.672,6.336,12.816,6.624,12.816,6.624,12.96,6.912,12.96,6.912,13.104,7.056,13.104,7.056,13.248,8.784,13.248,8.784,13.104,9.072,13.104,9.072,12.96,9.36,12.96,9.36,12.816,9.648,12.816,9.648,12.672,10.08,12.672,10.08,12.528,10.656,12.528,10.656,12.384"  stroke="none" stroke-width="0"/>
     <polygon fill="black" points="12.528,12.384,12.528,12.528,13.104,12.528,13.104,12.672,13.536,12.672,13.536,12.816,13.824,12.816,13.824,12.96,14.112,12.96,14.112,13.104,14.256,13.104,14.256,13.248,15.984,13.248,15.984,13.104,16.272,13.104,16.272,12.96,16.56,12.96,16.56,12.816,16.848,12.816,16.848,12.672,17.28,12.672,17.28,12.528,17.856,12.528,17.856,12.384"  stroke="none" stroke-width="0"/>
     <g  id="connector0pad">
      <circle fill="black" cx="5.4945"  cy="5.4954" stroke="none" r="2.7" stroke-width="0"/>
     </g>
    </g>
   </g>
  </g>
  <g partID="398380">
   <g transform="translate(79.344,39.456)">
    <g  id="groundplane">
     <g  id="connector0pad">
      <polygon fill="black" points="5.04,0,5.04,0.144,4.896,0.144,4.896,0.432,4.752,0.432,4.752,0.576,4.608,0.576,4.608,0.864,4.464,0.864,4.464,1.008,4.32,1.008,4.32,1.296,4.176,1.296,4.176,1.44,4.032,1.44,4.032,1.728,3.888,1.728,3.888,1.872,3.744,1.872,3.744,2.16,3.6,2.16,3.6,2.304,3.456,2.304,3.456,2.592,3.312,2.592,3.312,2.736,3.168,2.736,3.168,3.024,3.024,3.024,3.024,3.168,2.88,3.168,2.88,3.456,2.736,3.456,2.736,3.6,2.592,3.6,2.592,3.888,2.448,3.888,2.448,4.032,2.304,4.032,2.304,4.32,2.16,4.32,2.16,4.464,2.016,4.464,2.016,4.752,1.872,4.752,1.872,4.896,1.728,4.896,1.728,5.184,1.584,5.184,1.584,5.328,1.44,5.328,1.44,5.616,1.296,5.616,1.296,5.76,1.152,5.76,1.152,6.048,1.008,6.048,1.008,6.192,0.864,6.192,0.864,6.48,0.72,6.48,0.72,6.624,0.576,6.624,0.576,6.912,0.432,6.912,0.432,7.056,0.288,7.056,0.288,7.344,0.144,7.344,0.144,7.488,0,7.488,0,8.784,7.2,8.784,7.2,8.928,7.776,8.928,7.776,9.072,8.208,9.072,8.208,9.216,8.496,9.216,8.496,9.36,8.784,9.36,8.784,9.504,8.928,9.504,8.928,9.648,10.512,9.648,10.512,8.064,10.368,8.064,10.368,7.776,10.224,7.776,10.224,7.488,10.08,7.488,10.08,7.2,9.936,7.2,9.936,6.912,9.792,6.912,9.792,6.624,9.648,6.624,9.648,6.336,9.504,6.336,9.504,6.048,9.36,6.048,9.36,5.76,9.216,5.76,9.216,5.472,9.072,5.472,9.072,5.184,8.928,5.184,8.928,4.896,8.784,4.896,8.784,4.608,8.64,4.608,8.64,4.32,8.496,4.32,8.496,4.032,8.352,4.032,8.352,3.744,8.208,3.744,8.208,3.456,8.064,3.456,8.064,3.168,7.92,3.168,7.92,2.88,7.776,2.88,7.776,2.592,7.632,2.592,7.632,2.304,7.488,2.304,7.488,2.016,7.344,2.016,7.344,1.728,7.2,1.728,7.2,1.44,7.056,1.44,7.056,1.152,6.912,1.152,6.912,0.864,6.768,0.864,6.768,0.576,6.624,0.576,6.624,0.288,6.48,0.288,6.48,0"  stroke="none" stroke-width="0"/>
      <polygon fill="black" points="0,8.784,0,8.928,0.576,8.928,0.576,9.072,1.008,9.072,1.008,9.216,1.296,9.216,1.296,9.36,1.584,9.36,1.584,9.504,1.728,9.504,1.728,9.648,3.456,9.648,3.456,9.504,3.744,9.504,3.744,9.36,4.032,9.36,4.032,9.216,4.32,9.216,4.32,9.072,4.752,9.072,4.752,8.928,5.328,8.928,5.328,8.784"  stroke="none" stroke-width="0"/>
     </g>
    </g>
   </g>
  </g>
  <g partID="398590">
   <g transform="translate(3.168,65.088)">
    <g  id="groundplane">
     <polygon fill="black" points="0,0,0,0.144,1.728,0.144,1.728,0"  stroke="none" stroke-width="0"/>
     <polygon fill="black" points="0,0.144,0,0.288,2.448,0.288,2.448,0.144"  stroke="none" stroke-width="0"/>
     <polygon fill="black" points="4.032,0.144,4.032,0.288,5.616,0.288,5.616,0.144"  stroke="none" stroke-width="0"/>
     <polygon fill="black" points="0,0.288,0,0.432,5.616,0.432,5.616,0.288"  stroke="none" stroke-width="0"/>
     <polygon fill="black" points="0,0.288,0,0.432,5.616,0.432,5.616,0.288"  stroke="none" stroke-width="0"/>
     <polygon fill="black" points="0,0.432,0,30.384,4.176,30.384,4.176,30.528,5.76,30.528,5.76,30.384,7.2,30.384,7.2,6.48,7.056,6.48,7.056,6.336,6.912,6.336,6.912,6.192,6.768,6.192,6.768,6.048,6.624,6.048,6.624,5.76,6.48,5.76,6.48,5.616,6.336,5.616,6.336,5.472,6.192,5.472,6.192,5.328,6.048,5.328,6.048,5.04,5.904,5.04,5.904,4.752,5.76,4.752,5.76,4.464,5.616,4.464,5.616,4.032,5.472,4.032,5.472,1.152,5.616,1.152,5.616,0.432"  stroke="none" stroke-width="0"/>
     <polygon fill="black" points="0,30.384,0,30.672,1.728,30.672,1.728,30.528,2.304,30.528,2.304,30.384"  stroke="none" stroke-width="0"/>
     <g  id="connector0pad">
      <circle fill="black" cx="3.549"  cy="8.06479" stroke="none" r="2.7" stroke-width="0"/>
     </g>
    </g>
   </g>
  </g>
  <g partID="414840">
   <g transform="translate(89.424,6.048)">
    <g  id="groundplane">
     <polygon fill="black" points="0.144,0,0.144,1.44,0.288,1.44,0.288,1.584,0.432,1.584,0.432,1.872,0.576,1.872,0.576,2.16,0.72,2.16,0.72,2.448,0.864,2.448,0.864,3.024,1.008,3.024,1.008,5.04,0.864,5.04,0.864,5.616,0.72,5.616,0.72,5.904,0.576,5.904,0.576,6.192,0.432,6.192,0.432,6.48,0.288,6.48,0.288,6.768,0.144,6.768,0.144,6.912,0,6.912,0,8.352,0.144,8.352,0.144,8.64,0.288,8.64,0.288,8.784,0.432,8.784,0.432,9.072,0.576,9.072,0.576,9.36,0.72,9.36,0.72,9.648,0.864,9.648,0.864,10.224,1.008,10.224,1.008,12.24,0.864,12.24,0.864,13.392,11.952,13.392,11.952,13.536,12.384,13.536,12.384,13.68,12.672,13.68,12.672,13.824,12.96,13.824,12.96,13.968,14.544,13.968,14.544,10.368,14.688,10.368,14.688,9.792,14.832,9.792,14.832,9.504,14.976,9.504,14.976,9.216,15.12,9.216,15.12,9.072,15.264,9.072,15.264,8.928,15.408,8.928,15.408,8.784,15.552,8.784,15.552,8.64,15.696,8.64,15.696,8.496,15.984,8.496,15.984,8.352,16.272,8.352,16.272,8.208,16.704,8.208,16.704,8.064,34.272,8.064,34.272,7.92,61.344,7.92,61.344,0"  stroke="none" stroke-width="0"/>
     <polygon fill="black" points="4.752,13.392,4.752,13.536,5.184,13.536,5.184,13.68,5.472,13.68,5.472,13.824,5.76,13.824,5.76,13.968,6.048,13.968,6.048,14.112,6.192,14.112,6.192,14.256,7.632,14.256,7.632,14.112,7.92,14.112,7.92,13.968,8.064,13.968,8.064,13.824,8.352,13.824,8.352,13.68,8.64,13.68,8.64,13.536,9.072,13.536,9.072,13.392"  stroke="none" stroke-width="0"/>
     <g  id="connector0pad">
      <circle fill="black" cx="5.75178"  cy="4.833" stroke="none" r="2.7" stroke-width="0"/>
     </g>
    </g>
   </g>
  </g>
  <g partID="415140">
   <g transform="translate(10.656,6.048)">
    <g  id="groundplane">
     <polygon fill="black" points="0.144,0,0.144,1.44,0.288,1.44,0.288,1.728,0.432,1.728,0.432,2.016,0.576,2.016,0.576,2.448,0.72,2.448,0.72,3.024,0.864,3.024,0.864,5.04,0.72,5.04,0.72,5.616,0.576,5.616,0.576,6.048,0.432,6.048,0.432,6.336,0.288,6.336,0.288,6.624,0.144,6.624,0.144,6.768,0,6.768,0,8.496,0.144,8.496,0.144,8.64,0.288,8.64,0.288,8.928,0.432,8.928,0.432,9.216,0.576,9.216,0.576,9.648,0.72,9.648,0.72,10.224,0.864,10.224,0.864,11.664,1.008,11.664,1.008,11.808,1.152,11.808,1.152,11.952,1.296,11.952,1.296,12.096,1.44,12.096,1.44,12.24,1.584,12.24,1.584,12.384,1.728,12.384,1.728,12.528,1.872,12.528,1.872,12.672,2.016,12.672,2.016,12.816,2.16,12.816,2.16,12.96,2.304,12.96,2.304,13.104,2.448,13.104,2.448,13.248,2.592,13.248,2.592,13.392,47.52,13.392,47.52,13.536,47.952,13.536,47.952,13.68,48.24,13.68,48.24,13.824,48.528,13.824,48.528,13.968,48.816,13.968,48.816,14.112,50.256,14.112,50.256,12.816,50.112,12.816,50.112,12.672,49.968,12.672,49.968,12.528,49.824,12.528,49.824,12.384,49.68,12.384,49.68,12.24,49.536,12.24,49.536,12.096,49.392,12.096,49.392,11.952,49.248,11.952,49.248,11.808,49.104,11.808,49.104,11.664,48.96,11.664,48.96,11.52,48.816,11.52,48.816,11.376,48.672,11.376,48.672,11.232,48.528,11.232,48.528,11.088,48.384,11.088,48.384,10.944,48.24,10.944,48.24,10.8,48.096,10.8,48.096,10.656,47.952,10.656,47.952,10.512,47.808,10.512,47.808,10.368,47.664,10.368,47.664,10.224,47.52,10.224,47.52,10.08,47.376,10.08,47.376,9.936,47.232,9.936,47.232,9.792,47.088,9.792,47.088,9.648,46.944,9.648,46.944,9.504,46.8,9.504,46.8,9.36,46.656,9.36,46.656,9.216,46.512,9.216,46.512,9.072,41.184,9.072,41.184,0"  stroke="none" stroke-width="0"/>
     <polygon fill="black" points="2.736,13.392,2.736,13.536,2.88,13.536,2.88,13.68,3.024,13.68,3.024,13.824,3.168,13.824,3.168,13.968,3.312,13.968,3.312,14.112,3.456,14.112,3.456,14.256,3.6,14.256,3.6,14.4,3.744,14.4,3.744,14.544,3.888,14.544,3.888,14.688,4.032,14.688,4.032,14.832,4.176,14.832,4.176,14.976,4.32,14.976,4.32,15.12,4.464,15.12,4.464,15.264,4.608,15.264,4.608,15.408,4.752,15.408,4.752,15.552,4.896,15.552,4.896,15.696,5.04,15.696,5.04,15.84,5.184,15.84,5.184,15.984,5.328,15.984,5.328,16.128,5.472,16.128,5.472,16.272,5.616,16.272,5.616,16.416,5.76,16.416,5.76,16.56,5.904,16.56,5.904,16.704,6.048,16.704,6.048,16.848,6.192,16.848,6.192,16.992,6.336,16.992,6.336,17.136,6.48,17.136,6.48,17.28,6.624,17.28,6.624,17.424,6.768,17.424,6.768,17.568,6.912,17.568,6.912,17.712,7.056,17.712,7.056,17.856,7.2,17.856,7.2,18,7.344,18,7.344,18.144,7.488,18.144,7.488,18.288,7.632,18.288,7.632,18.432,7.776,18.432,7.776,18.576,7.92,18.576,7.92,18.72,8.064,18.72,8.064,18.864,8.208,18.864,8.208,19.008,8.352,19.008,8.352,19.152,8.496,19.152,8.496,19.296,8.64,19.296,8.64,19.44,8.784,19.44,8.784,19.584,8.928,19.584,8.928,19.728,9.072,19.728,9.072,19.872,9.216,19.872,9.216,20.016,9.36,20.016,9.36,20.16,9.504,20.16,9.504,20.304,9.648,20.304,9.648,20.448,9.792,20.448,9.792,20.592,12.24,20.592,12.24,17.136,12.384,17.136,12.384,16.704,12.528,16.704,12.528,16.272,12.672,16.272,12.672,15.984,12.816,15.984,12.816,15.84,12.96,15.84,12.96,15.552,13.104,15.552,13.104,15.408,13.248,15.408,13.248,15.264,13.392,15.264,13.392,14.976,13.536,14.976,13.536,14.832,13.68,14.832,13.68,14.688,13.824,14.688,13.824,14.544,14.112,14.544,14.112,14.4,14.256,14.4,14.256,14.256,14.4,14.256,14.4,14.112,14.688,14.112,14.688,13.968,14.832,13.968,14.832,13.824,15.12,13.824,15.12,13.68,15.408,13.68,15.408,13.536,15.84,13.536,15.84,13.392"  stroke="none" stroke-width="0"/>
     <polygon fill="black" points="18.72,13.392,18.72,13.536,19.152,13.536,19.152,13.68,19.44,13.68,19.44,13.824,19.728,13.824,19.728,13.968,20.016,13.968,20.016,14.112,20.16,14.112,20.16,14.256,21.6,14.256,21.6,14.112,21.888,14.112,21.888,13.968,22.032,13.968,22.032,13.824,22.32,13.824,22.32,13.68,22.608,13.68,22.608,13.536,23.04,13.536,23.04,13.392"  stroke="none" stroke-width="0"/>
     <polygon fill="black" points="25.92,13.392,25.92,13.536,26.352,13.536,26.352,13.68,26.64,13.68,26.64,13.824,26.928,13.824,26.928,13.968,27.216,13.968,27.216,14.112,27.36,14.112,27.36,14.256,28.8,14.256,28.8,14.112,29.088,14.112,29.088,13.968,29.232,13.968,29.232,13.824,29.52,13.824,29.52,13.68,29.808,13.68,29.808,13.536,30.24,13.536,30.24,13.392"  stroke="none" stroke-width="0"/>
     <polygon fill="black" points="33.12,13.392,33.12,13.536,33.552,13.536,33.552,13.68,33.84,13.68,33.84,13.824,34.128,13.824,34.128,13.968,34.416,13.968,34.416,14.112,34.56,14.112,34.56,14.256,36,14.256,36,14.112,36.288,14.112,36.288,13.968,36.432,13.968,36.432,13.824,36.72,13.824,36.72,13.68,37.008,13.68,37.008,13.536,37.44,13.536,37.44,13.392"  stroke="none" stroke-width="0"/>
     <polygon fill="black" points="40.32,13.392,40.32,13.536,40.752,13.536,40.752,13.68,41.04,13.68,41.04,13.824,41.328,13.824,41.328,13.968,41.616,13.968,41.616,14.112,41.76,14.112,41.76,14.256,43.2,14.256,43.2,14.112,43.488,14.112,43.488,13.968,43.632,13.968,43.632,13.824,43.92,13.824,43.92,13.68,44.208,13.68,44.208,13.536,44.64,13.536,44.64,13.392"  stroke="none" stroke-width="0"/>
     <g  id="connector0pad">
      <circle fill="black" cx="5.66858"  cy="4.8618" stroke="none" r="2.7" stroke-width="0"/>
     </g>
    </g>
   </g>
  </g>
  <g partID="422450">
   <g transform="translate(45.072,50.256)">
    <g  id="groundplane">
     <g  id="connector0pad">
      <polygon fill="black" points="97.632,0,97.632,36.72,97.488,36.72,97.488,37.008,97.344,37.008,97.344,37.296,97.2,37.296,97.2,37.584,97.056,37.584,97.056,37.728,96.912,37.728,96.912,37.872,96.768,37.872,96.768,38.016,96.624,38.016,96.624,38.16,96.336,38.16,96.336,38.304,96.048,38.304,96.048,38.448,95.616,38.448,95.616,38.592,79.632,38.592,79.632,44.784,92.304,44.784,92.304,45.36,93.744,45.36,93.744,45.216,102.096,45.216,102.096,0.864,101.088,0.864,101.088,0.72,100.224,0.72,100.224,0.576,99.792,0.576,99.792,0.432,99.504,0.432,99.504,0.288,99.216,0.288,99.216,0.144,99.072,0.144,99.072,0"  stroke="none" stroke-width="0"/>
      <polygon fill="black" points="79.632,44.784,79.632,51.12,79.488,51.12,79.488,51.408,79.344,51.408,79.344,51.696,79.2,51.696,79.2,51.984,79.056,51.984,79.056,52.128,78.912,52.128,78.912,52.272,78.768,52.272,78.768,52.416,78.624,52.416,78.624,52.56,78.336,52.56,78.336,52.704,78.048,52.704,78.048,52.848,77.616,52.848,77.616,52.992,0,52.992,0,54.576,0.144,54.576,0.144,54.864,82.368,54.864,82.368,44.784"  stroke="none" stroke-width="0"/>
      <polygon fill="black" points="92.304,54.432,92.304,54.864,102.096,54.864,102.096,54.432"  stroke="none" stroke-width="0"/>
      <polygon fill="black" points="0.288,54.864,0.288,55.008,102.096,55.008,102.096,54.864"  stroke="none" stroke-width="0"/>
      <polygon fill="black" points="0.288,54.864,0.288,55.008,102.096,55.008,102.096,54.864"  stroke="none" stroke-width="0"/>
      <polygon fill="black" points="0.288,55.008,0.288,55.152,0.432,55.152,0.432,55.584,5.472,55.584,5.472,55.728,6.048,55.728,6.048,55.872,6.48,55.872,6.48,56.016,6.768,56.016,6.768,56.16,7.056,56.16,7.056,56.304,7.2,56.304,7.2,56.448,7.488,56.448,7.488,56.592,7.632,56.592,7.632,56.736,7.776,56.736,7.776,56.88,7.92,56.88,7.92,57.024,8.064,57.024,8.064,57.168,8.208,57.168,8.208,57.312,8.352,57.312,8.352,57.456,102.096,57.456,102.096,55.008"  stroke="none" stroke-width="0"/>
      <polygon fill="black" points="0.576,55.584,0.576,56.16,2.304,56.16,2.304,56.016,2.592,56.016,2.592,55.872,3.024,55.872,3.024,55.728,3.6,55.728,3.6,55.584"  stroke="none" stroke-width="0"/>
     </g>
    </g>
   </g>
  </g>
  <g partID="423530">
   <g transform="translate(35.28,51.12)">
    <g  id="groundplane">
     <polygon fill="black" points="91.152,0,91.152,1.008,91.296,1.008,91.296,3.312,91.152,3.312,91.152,3.888,91.008,3.888,91.008,4.176,90.864,4.176,90.864,4.464,90.72,4.464,90.72,4.752,90.576,4.752,90.576,4.896,90.432,4.896,90.432,6.336,90.576,6.336,90.576,6.624,90.72,6.624,90.72,6.768,90.864,6.768,90.864,7.056,91.008,7.056,91.008,7.344,91.152,7.344,91.152,7.776,91.296,7.776,91.296,8.352,91.44,8.352,91.44,10.368,91.296,10.368,91.296,10.944,91.152,10.944,91.152,11.376,91.008,11.376,91.008,11.664,90.864,11.664,90.864,11.952,90.72,11.952,90.72,12.096,90.576,12.096,90.576,12.384,90.432,12.384,90.432,12.528,90.288,12.528,90.288,12.672,90.144,12.672,90.144,12.816,90,12.816,90,12.96,89.856,12.96,89.856,13.104,89.712,13.104,89.712,13.248,89.568,13.248,89.568,13.392,89.424,13.392,89.424,13.536,89.28,13.536,89.28,13.68,88.992,13.68,88.992,13.824,88.704,13.824,88.704,13.968,88.56,13.968,88.56,14.112,88.128,14.112,88.128,14.256,87.84,14.256,87.84,14.4,86.976,14.4,86.976,14.544,93.888,14.544,93.888,0"  stroke="none" stroke-width="0"/>
     <polygon fill="black" points="67.392,13.68,67.392,14.544,71.136,14.544,71.136,14.4,70.416,14.4,70.416,14.256,69.984,14.256,69.984,14.112,69.696,14.112,69.696,13.968,69.408,13.968,69.408,13.824,69.12,13.824,69.12,13.68"  stroke="none" stroke-width="0"/>
     <polygon fill="black" points="74.592,13.68,74.592,13.824,74.304,13.824,74.304,13.968,74.16,13.968,74.16,14.112,73.728,14.112,73.728,14.256,73.44,14.256,73.44,14.4,72.576,14.4,72.576,14.544,78.336,14.544,78.336,14.4,77.616,14.4,77.616,14.256,77.184,14.256,77.184,14.112,76.896,14.112,76.896,13.968,76.608,13.968,76.608,13.824,76.32,13.824,76.32,13.68"  stroke="none" stroke-width="0"/>
     <polygon fill="black" points="81.792,13.68,81.792,13.824,81.504,13.824,81.504,13.968,81.36,13.968,81.36,14.112,80.928,14.112,80.928,14.256,80.64,14.256,80.64,14.4,79.776,14.4,79.776,14.544,85.536,14.544,85.536,14.4,84.816,14.4,84.816,14.256,84.384,14.256,84.384,14.112,84.096,14.112,84.096,13.968,83.808,13.968,83.808,13.824,83.52,13.824,83.52,13.68"  stroke="none" stroke-width="0"/>
     <polygon fill="black" points="67.392,14.544,67.392,14.688,93.888,14.688,93.888,14.544"  stroke="none" stroke-width="0"/>
     <polygon fill="black" points="67.392,14.544,67.392,14.688,93.888,14.688,93.888,14.544"  stroke="none" stroke-width="0"/>
     <polygon fill="black" points="67.392,14.544,67.392,14.688,93.888,14.688,93.888,14.544"  stroke="none" stroke-width="0"/>
     <polygon fill="black" points="67.392,14.544,67.392,14.688,93.888,14.688,93.888,14.544"  stroke="none" stroke-width="0"/>
     <polygon fill="black" points="67.392,14.688,67.392,15.12,67.536,15.12,67.536,15.264,67.68,15.264,67.68,15.408,67.968,15.408,67.968,15.552,68.256,15.552,68.256,15.696,68.4,15.696,68.4,15.84,68.688,15.84,68.688,15.984,68.832,15.984,68.832,16.128,69.12,16.128,69.12,16.272,69.408,16.272,69.408,16.416,69.552,16.416,69.552,16.56,69.84,16.56,69.84,16.704,70.128,16.704,70.128,16.848,70.272,16.848,70.272,16.992,70.56,16.992,70.56,17.136,70.704,17.136,70.704,17.28,70.992,17.28,70.992,17.424,71.28,17.424,71.28,17.568,71.424,17.568,71.424,17.712,71.712,17.712,71.712,17.856,72,17.856,72,18,72.144,18,72.144,18.144,72.432,18.144,72.432,18.288,72.576,18.288,72.576,18.432,72.864,18.432,72.864,18.576,73.152,18.576,73.152,18.72,73.296,18.72,73.296,18.864,75.888,18.864,75.888,19.008,76.464,19.008,76.464,19.152,76.896,19.152,76.896,19.296,77.184,19.296,77.184,19.44,77.472,19.44,77.472,19.584,77.616,19.584,77.616,19.728,77.904,19.728,77.904,19.872,78.048,19.872,78.048,20.016,78.192,20.016,78.192,20.16,78.336,20.16,78.336,20.304,78.48,20.304,78.48,20.448,78.624,20.448,78.624,20.592,78.768,20.592,78.768,20.736,78.912,20.736,78.912,20.88,79.056,20.88,79.056,21.168,79.2,21.168,79.2,21.312,79.344,21.312,79.344,21.6,79.488,21.6,79.488,21.888,79.632,21.888,79.632,22.32,79.776,22.32,79.776,23.04,79.92,23.04,79.92,24.48,79.776,24.48,79.776,25.2,96.048,25.2,96.048,25.056,95.472,25.056,95.472,24.912,95.184,24.912,95.184,24.768,94.896,24.768,94.896,24.624,94.608,24.624,94.608,24.48,94.32,24.48,94.32,24.336,94.176,24.336,94.176,24.192,94.032,24.192,94.032,24.048,93.744,24.048,93.744,23.904,93.6,23.904,93.6,23.76,93.456,23.76,93.456,23.616,93.312,23.616,93.312,23.328,93.168,23.328,93.168,23.184,93.024,23.184,93.024,23.04,92.88,23.04,92.88,22.752,92.736,22.752,92.736,22.608,92.592,22.608,92.592,22.32,92.448,22.32,92.448,22.032,92.304,22.032,92.304,21.6,92.16,21.6,92.16,18.72,92.304,18.72,92.304,18.288,92.448,18.288,92.448,18,92.592,18,92.592,17.712,92.736,17.712,92.736,17.568,92.88,17.568,92.88,17.28,93.024,17.28,93.024,17.136,93.168,17.136,93.168,16.992,93.312,16.992,93.312,16.704,93.456,16.704,93.456,16.56,93.6,16.56,93.6,16.416,93.888,16.416,93.888,14.688"  stroke="none" stroke-width="0"/>
     <polygon fill="black" points="99.648,24.48,99.648,24.624,99.36,24.624,99.36,24.768,99.072,24.768,99.072,24.912,98.64,24.912,98.64,25.056,98.064,25.056,98.064,25.2,101.088,25.2,101.088,24.48"  stroke="none" stroke-width="0"/>
     <polygon fill="black" points="79.632,25.2,79.632,25.344,101.088,25.344,101.088,25.2"  stroke="none" stroke-width="0"/>
     <polygon fill="black" points="79.632,25.2,79.632,25.344,101.088,25.344,101.088,25.2"  stroke="none" stroke-width="0"/>
     <polygon fill="black" points="79.632,25.344,79.632,25.632,79.488,25.632,79.488,25.92,79.344,25.92,79.344,26.208,79.2,26.208,79.2,26.352,79.056,26.352,79.056,26.64,78.912,26.64,78.912,26.784,78.768,26.784,78.768,26.928,78.624,26.928,78.624,27.072,78.48,27.072,78.48,27.216,78.336,27.216,78.336,29.952,78.48,29.952,78.48,33.984,78.624,33.984,78.624,34.56,78.768,34.56,78.768,34.704,78.912,34.704,78.912,34.848,79.056,34.848,79.056,34.992,79.2,34.992,79.2,35.136,79.344,35.136,79.344,35.28,79.488,35.28,79.488,35.424,79.632,35.424,79.632,35.712,79.776,35.712,79.776,36,79.92,36,79.92,36.288,80.064,36.288,80.064,36.576,80.208,36.576,80.208,37.152,80.352,37.152,80.352,39.168,80.208,39.168,80.208,39.744,80.064,39.744,80.064,40.032,79.92,40.032,79.92,40.32,79.776,40.32,79.776,40.608,79.632,40.608,79.632,40.896,79.488,40.896,79.488,41.04,79.344,41.04,79.344,41.184,79.2,41.184,79.2,41.328,79.056,41.328,79.056,41.616,78.912,41.616,78.912,41.76,78.624,41.76,78.624,41.904,78.48,41.904,78.48,42.048,78.336,42.048,78.336,42.192,78.192,42.192,78.192,42.336,77.904,42.336,77.904,42.48,77.616,42.48,77.616,42.624,77.328,42.624,77.328,42.768,76.896,42.768,76.896,42.912,76.176,42.912,76.176,43.056,83.088,43.056,83.088,33.696,83.232,33.696,83.232,33.12,83.376,33.12,83.376,32.832,83.52,32.832,83.52,32.544,83.664,32.544,83.664,32.4,83.808,32.4,83.808,32.256,83.952,32.256,83.952,32.112,84.096,32.112,84.096,31.968,84.24,31.968,84.24,31.824,84.528,31.824,84.528,31.68,84.816,31.68,84.816,31.536,85.248,31.536,85.248,31.392,101.088,31.392,101.088,25.344"  stroke="none" stroke-width="0"/>
     <polygon fill="black" points="9.36,40.896,9.36,41.04,9.216,41.04,9.216,41.184,9.072,41.184,9.072,41.328,8.928,41.328,8.928,41.472,8.784,41.472,8.784,41.616,8.64,41.616,8.64,41.76,8.352,41.76,8.352,41.904,8.208,41.904,8.208,42.048,7.92,42.048,7.92,42.192,7.776,42.192,7.776,42.336,7.488,42.336,7.488,42.48,7.056,42.48,7.056,42.624,6.48,42.624,6.48,42.768,66.528,42.768,66.528,42.624,66.096,42.624,66.096,42.48,65.952,42.48,65.952,42.336,65.664,42.336,65.664,42.192,65.52,42.192,65.52,42.048,65.232,42.048,65.232,41.904,65.088,41.904,65.088,41.76,64.944,41.76,64.944,41.616,64.8,41.616,64.8,41.472,64.656,41.472,64.656,41.328,42.192,41.328,42.192,41.184,34.848,41.184,34.848,41.04,13.68,41.04,13.68,40.896"  stroke="none" stroke-width="0"/>
     <polygon fill="black" points="1.44,42.048,1.44,42.192,1.296,42.192,1.296,42.768,4.464,42.768,4.464,42.624,3.888,42.624,3.888,42.48,3.456,42.48,3.456,42.336,3.168,42.336,3.168,42.192,2.88,42.192,2.88,42.048"  stroke="none" stroke-width="0"/>
     <polygon fill="black" points="71.136,42.048,71.136,42.192,70.848,42.192,70.848,42.336,70.704,42.336,70.704,42.48,70.416,42.48,70.416,42.624,70.128,42.624,70.128,42.768,69.696,42.768,69.696,42.912,68.976,42.912,68.976,43.056,74.88,43.056,74.88,42.912,74.016,42.912,74.016,42.768,73.728,42.768,73.728,42.624,73.44,42.624,73.44,42.48,73.152,42.48,73.152,42.336,72.864,42.336,72.864,42.192,72.72,42.192,72.72,42.048"  stroke="none" stroke-width="0"/>
     <polygon fill="black" points="1.152,42.768,1.152,42.912,66.816,42.912,66.816,42.768"  stroke="none" stroke-width="0"/>
     <polygon fill="black" points="1.152,42.768,1.152,42.912,66.816,42.912,66.816,42.768"  stroke="none" stroke-width="0"/>
     <polygon fill="black" points="1.152,42.912,1.152,43.056,67.68,43.056,67.68,42.912"  stroke="none" stroke-width="0"/>
     <polygon fill="black" points="1.152,43.056,1.152,43.2,83.088,43.2,83.088,43.056"  stroke="none" stroke-width="0"/>
     <polygon fill="black" points="1.152,43.056,1.152,43.2,83.088,43.2,83.088,43.056"  stroke="none" stroke-width="0"/>
     <polygon fill="black" points="1.152,43.056,1.152,43.2,83.088,43.2,83.088,43.056"  stroke="none" stroke-width="0"/>
     <polygon fill="black" points="1.152,43.2,1.152,43.344,1.008,43.344,1.008,43.92,0.864,43.92,0.864,44.496,0.72,44.496,0.72,45.072,0.576,45.072,0.576,45.648,0.432,45.648,0.432,46.224,0.288,46.224,0.288,46.8,0.144,46.8,0.144,47.376,0,47.376,0,48.096,1.584,48.096,1.584,47.952,1.872,47.952,1.872,47.808,2.16,47.808,2.16,47.664,2.448,47.664,2.448,47.52,2.736,47.52,2.736,47.376,3.024,47.376,3.024,47.232,3.312,47.232,3.312,47.088,3.6,47.088,3.6,46.944,3.888,46.944,3.888,46.8,4.176,46.8,4.176,46.656,4.464,46.656,4.464,46.512,4.752,46.512,4.752,46.368,5.04,46.368,5.04,46.224,5.328,46.224,5.328,46.08,5.616,46.08,5.616,45.936,6.048,45.936,6.048,45.792,83.088,45.792,83.088,43.2"  stroke="none" stroke-width="0"/>
     <g  id="connector0pad">
      <circle fill="black" cx="82.7554"  cy="19.0215" stroke="none" r="2.7" stroke-width="0"/>
     </g>
    </g>
   </g>
  </g>
  <g partID="12080">
   <g transform="translate(23.6584,57.608)">
    <g transform="matrix(0,-1,1,0,0,0)">
     <g  id="copper0" stroke-width="0">
      <rect width="3.96" x="2.34" y="2.34" fill="none"  height="3.96" stroke="black" stroke-width="1.44"/>
      <circle fill="none" cx="4.32"  cy="4.32" stroke="black" id="connector0pin" r="1.98" stroke-width="1.44"/>
      <circle fill="none" cx="25.92"  cy="4.32" stroke="black" id="connector27pin" r="1.98" stroke-width="1.44"/>
      <circle fill="none" cx="4.32"  cy="11.52" stroke="black" id="connector1pin" r="1.98" stroke-width="1.44"/>
      <circle fill="none" cx="25.92"  cy="11.52" stroke="black" id="connector26pin" r="1.98" stroke-width="1.44"/>
      <circle fill="none" cx="4.32"  cy="18.72" stroke="black" id="connector2pin" r="1.98" stroke-width="1.44"/>
      <circle fill="none" cx="25.92"  cy="18.72" stroke="black" id="connector25pin" r="1.98" stroke-width="1.44"/>
      <circle fill="none" cx="4.32"  cy="25.92" stroke="black" id="connector3pin" r="1.98" stroke-width="1.44"/>
      <circle fill="none" cx="25.92"  cy="25.92" stroke="black" id="connector24pin" r="1.98" stroke-width="1.44"/>
      <circle fill="none" cx="4.32"  cy="33.12" stroke="black" id="connector4pin" r="1.98" stroke-width="1.44"/>
      <circle fill="none" cx="25.92"  cy="33.12" stroke="black" id="connector23pin" r="1.98" stroke-width="1.44"/>
      <circle fill="none" cx="4.32"  cy="40.32" stroke="black" id="connector5pin" r="1.98" stroke-width="1.44"/>
      <circle fill="none" cx="25.92"  cy="40.32" stroke="black" id="connector22pin" r="1.98" stroke-width="1.44"/>
      <circle fill="none" cx="4.32"  cy="47.52" stroke="black" id="connector6pin" r="1.98" stroke-width="1.44"/>
      <circle fill="none" cx="25.92"  cy="47.52" stroke="black" id="connector21pin" r="1.98" stroke-width="1.44"/>
      <circle fill="none" cx="4.32"  cy="54.72" stroke="black" id="connector7pin" r="1.98" stroke-width="1.44"/>
      <circle fill="none" cx="25.92"  cy="54.72" stroke="black" id="connector20pin" r="1.98" stroke-width="1.44"/>
      <circle fill="none" cx="4.32"  cy="61.92" stroke="black" id="connector8pin" r="1.98" stroke-width="1.44"/>
      <circle fill="none" cx="25.92"  cy="61.92" stroke="black" id="connector19pin" r="1.98" stroke-width="1.44"/>
      <circle fill="none" cx="4.32"  cy="69.12" stroke="black" id="connector9pin" r="1.98" stroke-width="1.44"/>
      <circle fill="none" cx="25.92"  cy="69.12" stroke="black" id="connector18pin" r="1.98" stroke-width="1.44"/>
      <circle fill="none" cx="4.32"  cy="76.32" stroke="black" id="connector10pin" r="1.98" stroke-width="1.44"/>
      <circle fill="none" cx="25.92"  cy="76.32" stroke="black" id="connector17pin" r="1.98" stroke-width="1.44"/>
      <circle fill="none" cx="4.32"  cy="83.52" stroke="black" id="connector11pin" r="1.98" stroke-width="1.44"/>
      <circle fill="none" cx="25.92"  cy="83.52" stroke="black" id="connector16pin" r="1.98" stroke-width="1.44"/>
      <circle fill="none" cx="4.32"  cy="90.72" stroke="black" id="connector12pin" r="1.98" stroke-width="1.44"/>
      <circle fill="none" cx="25.92"  cy="90.72" stroke="black" id="connector15pin" r="1.98" stroke-width="1.44"/>
      <circle fill="none" cx="4.32"  cy="97.92" stroke="black" id="connector13pin" r="1.98" stroke-width="1.44"/>
      <circle fill="none" cx="25.92"  cy="97.92" stroke="black" id="connector14pin" r="1.98" stroke-width="1.44"/>
     </g>
    </g>
   </g>
  </g>
  <g partID="12690">
   <g transform="translate(126.618,19.448)">
    <g transform="matrix(0,1,-1,0,0,0)">
     <g  id="copper0">
      <circle fill="none" cx="5.04"  cy="5.04" stroke="black" id="connector0pin" r="2.088" stroke-width="1.44"/>
      <circle fill="none" cx="5.04"  cy="12.24" stroke="black" id="connector1pin" r="2.088" stroke-width="1.44"/>
      <circle fill="none" cx="5.04"  cy="19.44" stroke="black" id="connector2pin" r="2.088" stroke-width="1.44"/>
      <circle fill="none" cx="5.04"  cy="26.64" stroke="black" id="connector3pin" r="2.088" stroke-width="1.44"/>
      <circle fill="none" cx="5.04"  cy="33.84" stroke="black" id="connector4pin" r="2.088" stroke-width="1.44"/>
      <circle fill="none" cx="5.04"  cy="41.04" stroke="black" id="connector5pin" r="2.088" stroke-width="1.44"/>
      <circle fill="none" cx="5.04"  cy="48.24" stroke="black" id="connector6pin" r="2.088" stroke-width="1.44"/>
      <circle fill="none" cx="5.04"  cy="55.44" stroke="black" id="connector7pin" r="2.088" stroke-width="1.44"/>
      <circle fill="none" cx="5.04"  cy="62.64" stroke="black" id="connector8pin" r="2.088" stroke-width="1.44"/>
      <circle fill="none" cx="5.04"  cy="69.84" stroke="black" id="connector9pin" r="2.088" stroke-width="1.44"/>
      <circle fill="none" cx="5.04"  cy="77.04" stroke="black" id="connector10pin" r="2.088" stroke-width="1.44"/>
      <circle fill="none" cx="5.04"  cy="84.24" stroke="black" id="connector11pin" r="2.088" stroke-width="1.44"/>
      <circle fill="none" cx="5.04"  cy="91.44" stroke="black" id="connector12pin" r="2.088" stroke-width="1.44"/>
      <circle fill="none" cx="5.04"  cy="98.64" stroke="black" id="connector13pin" r="2.088" stroke-width="1.44"/>
     </g>
    </g>
   </g>
  </g>
  <g partID="12160">
   <g transform="translate(126.618,55.448)">
    <g transform="matrix(0,1,-1,0,0,0)">
     <g  id="copper0">
      <circle fill="none" cx="5.04"  cy="5.04" stroke="black" id="connector0pin" r="2.088" stroke-width="1.44"/>
      <circle fill="none" cx="5.04"  cy="12.24" stroke="black" id="connector1pin" r="2.088" stroke-width="1.44"/>
      <circle fill="none" cx="5.04"  cy="19.44" stroke="black" id="connector2pin" r="2.088" stroke-width="1.44"/>
      <circle fill="none" cx="5.04"  cy="26.64" stroke="black" id="connector3pin" r="2.088" stroke-width="1.44"/>
      <circle fill="none" cx="5.04"  cy="33.84" stroke="black" id="connector4pin" r="2.088" stroke-width="1.44"/>
      <circle fill="none" cx="5.04"  cy="41.04" stroke="black" id="connector5pin" r="2.088" stroke-width="1.44"/>
      <circle fill="none" cx="5.04"  cy="48.24" stroke="black" id="connector6pin" r="2.088" stroke-width="1.44"/>
      <circle fill="none" cx="5.04"  cy="55.44" stroke="black" id="connector7pin" r="2.088" stroke-width="1.44"/>
      <circle fill="none" cx="5.04"  cy="62.64" stroke="black" id="connector8pin" r="2.088" stroke-width="1.44"/>
      <circle fill="none" cx="5.04"  cy="69.84" stroke="black" id="connector9pin" r="2.088" stroke-width="1.44"/>
      <circle fill="none" cx="5.04"  cy="77.04" stroke="black" id="connector10pin" r="2.088" stroke-width="1.44"/>
      <circle fill="none" cx="5.04"  cy="84.24" stroke="black" id="connector11pin" r="2.088" stroke-width="1.44"/>
      <circle fill="none" cx="5.04"  cy="91.44" stroke="black" id="connector12pin" r="2.088" stroke-width="1.44"/>
      <circle fill="none" cx="5.04"  cy="98.64" stroke="black" id="connector13pin" r="2.088" stroke-width="1.44"/>
     </g>
    </g>
   </g>
  </g>
  <g partID="22200">
   <g transform="translate(52.8184,2.528)">
    <g  id="copper0">
     <rect width="3.96" x="1.98" y="5.58" fill="none"  height="3.96" stroke="black" id="rect11" stroke-width="1.44"/>
     <circle fill="none" cx="3.96"  cy="7.56" stroke="black" r="1.98" id="connector0pin" stroke-width="1.44"/>
     <circle fill="none" cx="11.16"  cy="7.56" stroke="black" r="1.98" id="connector1pin" stroke-width="1.44"/>
    </g>
   </g>
  </g>
  <g partID="22230">
   <g transform="translate(68.2984,14.408)">
    <g transform="matrix(1,0,0,1,0,0)">
     <g  id="copper0">
      <g  id="copper1">
       <circle fill="none" cx="2.88"  cy="2.88" stroke="black" id="connector0pin" r="1.8" stroke-width="1.44"/>
       <circle fill="none" cx="10.0933"  cy="2.88" stroke="black" id="connector1pin" r="1.8" stroke-width="1.44"/>
      </g>
     </g>
    </g>
   </g>
  </g>
  <g partID="22260">
   <g transform="translate(88.4584,7.208)">
    <g transform="matrix(0,1,-1,0,0,0)">
     <g  id="copper0">
      <g  id="copper1">
       <circle fill="none" cx="2.88"  cy="2.88" stroke="black" id="connector0pin" r="1.8" stroke-width="1.44"/>
       <circle fill="none" cx="10.0933"  cy="2.88" stroke="black" id="connector1pin" r="1.8" stroke-width="1.44"/>
      </g>
     </g>
    </g>
   </g>
  </g>
  <g partID="22290">
   <g transform="translate(18.0784,64.592)">
    <g  id="copper0">
     <g  id="copper1">
      <rect width="3.96" x="0.72" y="1.116" fill="none"  height="3.96" stroke="black" stroke-width="1.44"/>
      <circle fill="none" cx="2.7"  cy="3.096" stroke="black" r="1.98" id="connector0pin" stroke-width="1.44"/>
      <circle fill="none" cx="31.5"  cy="3.096" stroke="black" r="1.98" id="connector1pin" stroke-width="1.44"/>
     </g>
    </g>
   </g>
  </g>
  <g partID="22320">
   <g transform="translate(17.7544,71.288)">
    <g  id="copper0">
     <rect width="4.464" x="0.72" y="1.368" fill="none"  height="4.464" stroke="black" stroke-width="1.44"/>
     <circle fill="none" cx="3.024"  cy="3.6" stroke="black" id="connector0pin" r="2.232" stroke-width="1.44"/>
     <circle fill="none" cx="24.48"  cy="3.6" stroke="black" id="connector1pin" r="2.232" stroke-width="1.44"/>
    </g>
   </g>
  </g>
  <g partID="22350">
   <g transform="translate(68.2984,64.808)">
    <g  id="copper0">
     <g  id="copper1">
      <circle fill="none" cx="2.88"  cy="2.88" stroke="black" id="connector0pin" r="1.8" stroke-width="1.44"/>
      <circle fill="none" cx="10.0933"  cy="2.88" stroke="black" id="connector1pin" r="1.8" stroke-width="1.44"/>
     </g>
    </g>
   </g>
  </g>
  <g partID="22380">
   <g transform="translate(75.4984,72.008)">
    <g  id="copper0">
     <g  id="copper1">
      <circle fill="none" cx="2.88"  cy="2.88" stroke="black" id="connector0pin" r="1.8" stroke-width="1.44"/>
      <circle fill="none" cx="10.0933"  cy="2.88" stroke="black" id="connector1pin" r="1.8" stroke-width="1.44"/>
     </g>
    </g>
   </g>
  </g>
  <g partID="22410">
   <g transform="translate(100.698,86.408)">
    <g  id="copper0">
     <g  id="copper1">
      <circle fill="none" cx="2.88"  cy="2.88" stroke="black" id="connector0pin" r="1.8" stroke-width="1.44"/>
      <circle fill="none" cx="10.0933"  cy="2.88" stroke="black" id="connector1pin" r="1.8" stroke-width="1.44"/>
     </g>
    </g>
   </g>
  </g>
  <g partID="22440">
   <g transform="translate(87.7327,67.8014)">
    <g  id="copper0">
     <g  id="copper1">
      <circle fill="none" cx="22.5479"  cy="7.08448" stroke="black" id="connector1pin" r="1.84465" stroke-width="1.41732"/>
      <circle fill="none" cx="8.64567"  cy="7.08661" stroke="black" id="connector0pin" r="1.84252" stroke-width="1.41732"/>
     </g>
    </g>
   </g>
  </g>
  <g partID="43430">
   <g transform="translate(11.4184,43.928)">
    <g transform="matrix(-1,0,0,-1,0,0)">
     <g  id="copper0">
      <circle fill="none" cx="5.04"  cy="5.04" stroke="black" id="connector0pin" r="2.088" stroke-width="1.44"/>
      <circle fill="none" cx="5.04"  cy="12.24" stroke="black" id="connector1pin" r="2.088" stroke-width="1.44"/>
      <circle fill="none" cx="5.04"  cy="19.44" stroke="black" id="connector2pin" r="2.088" stroke-width="1.44"/>
      <circle fill="none" cx="5.04"  cy="26.64" stroke="black" id="connector3pin" r="2.088" stroke-width="1.44"/>
      <circle fill="none" cx="5.04"  cy="33.84" stroke="black" id="connector4pin" r="2.088" stroke-width="1.44"/>
     </g>
    </g>
   </g>
  </g>
  <g partID="43450">
   <g transform="translate(9.2584,50.408)">
    <g transform="matrix(0,1,-1,0,0,0)">
     <g  id="copper0">
      <g  id="copper1">
       <circle fill="none" cx="2.88"  cy="2.88" stroke="black" id="connector0pin" r="1.8" stroke-width="1.44"/>
       <circle fill="none" cx="10.0933"  cy="2.88" stroke="black" id="connector1pin" r="1.8" stroke-width="1.44"/>
      </g>
     </g>
    </g>
   </g>
  </g>
  <g partID="201470">
   <g transform="translate(25.1322,109.709)">
    <g transform="matrix(0,-1,1,0,0,0)">
     <g  id="copper0">
      <circle fill="none" cx="20.8462"  cy="15.6024" stroke="black" id="connector0pad" r="1.98" stroke-width="1.44"/>
      <circle fill="none" cx="2.42064"  cy="15.6024" stroke="black" id="connector1pad" r="1.98" stroke-width="1.44"/>
      <circle fill="none" cx="20.8462"  cy="2.84616" stroke="black" id="connector2pad" r="1.98" stroke-width="1.44"/>
      <circle fill="none" cx="2.42064"  cy="2.84616" stroke="black" id="connector3pad" r="1.98" stroke-width="1.44"/>
     </g>
    </g>
   </g>
  </g>
  <g partID="292650">
   <g transform="translate(130.787,17.4608)">
    <g  id="copper0">
     <g  id="copper1">
      <rect width="4.104" x="6.7392" y="12.1752" fill="none"  height="4.104" stroke="black" id="square" r="285" stroke-width="1.224"/>
      <circle fill="none" cx="15.9912"  cy="14.2272" stroke="black" id="connector5pin" r="2.052" stroke-width="1.224"/>
      <circle fill="none" cx="15.9912"  cy="21.4272" stroke="black" id="connector4pin" r="2.052" stroke-width="1.224"/>
      <circle fill="none" cx="15.9912"  cy="28.6272" stroke="black" id="connector3pin" r="2.052" stroke-width="1.224"/>
      <circle fill="none" cx="8.7912"  cy="14.2272" stroke="black" id="connector0pin" r="2.052" stroke-width="1.224"/>
      <circle fill="none" cx="8.7912"  cy="21.4272" stroke="black" id="connector1pin" r="2.052" stroke-width="1.224"/>
      <circle fill="none" cx="8.7912"  cy="28.6272" stroke="black" id="connector2pin" r="2.052" stroke-width="1.224"/>
     </g>
    </g>
   </g>
  </g>
  <g partID="357730">
   <g transform="translate(129.282,102.788)">
    <g transform="matrix(-2.77556e-16,-1,1,-2.77556e-16,0,0)">
     <g  id="copper0">
      <g  id="copper1">
       <rect width="3.96" x="0.72" y="1.116" fill="none"  height="3.96" stroke="black" stroke-width="1.44"/>
       <circle fill="none" cx="2.7"  cy="3.096" stroke="black" r="1.98" id="connector0pin" stroke-width="1.44"/>
       <circle fill="none" cx="31.5"  cy="3.096" stroke="black" r="1.98" id="connector1pin" stroke-width="1.44"/>
      </g>
     </g>
    </g>
   </g>
  </g>
  <g partID="355290">
   <g transform="translate(2.832,108.876)">
    <g transform="matrix(0,-1,1,0,0,0)">
     <g  id="copper0">
      <g  id="copper1">
       <circle fill="none" cx="8.7876"  cy="10.6336" stroke="black" id="connector1pad" r="1.7008" stroke-width="1.13384"/>
       <rect width="3.4016" x="7.0868" y="8.9328" fill="none"  height="3.4016" stroke="black" stroke-width="1.13384"/>
       <circle fill="none" cx="8.7876"  cy="3.5464" stroke="black" id="connector0pad" r="1.7008" stroke-width="1.13384"/>
      </g>
     </g>
    </g>
   </g>
  </g>
  <g partID="356360">
   <g transform="translate(18.0784,107.792)">
    <g  id="copper0">
     <g  id="copper1">
      <rect width="3.96" x="0.72" y="1.116" fill="none"  height="3.96" stroke="black" stroke-width="1.44"/>
      <circle fill="none" cx="2.7"  cy="3.096" stroke="black" r="1.98" id="connector0pin" stroke-width="1.44"/>
      <circle fill="none" cx="31.5"  cy="3.096" stroke="black" r="1.98" id="connector1pin" stroke-width="1.44"/>
     </g>
    </g>
   </g>
  </g>
  <g partID="357900">
   <g transform="translate(153.925,91.3004)">
    <g transform="matrix(0,1,-1,0,0,0)">
     <g  id="copper0">
      <g  id="copper1">
       <circle fill="none" cx="8.7876"  cy="10.6336" stroke="black" id="connector1pad" r="1.7008" stroke-width="1.13384"/>
       <rect width="3.4016" x="7.0868" y="8.9328" fill="none"  height="3.4016" stroke="black" stroke-width="1.13384"/>
       <circle fill="none" cx="8.7876"  cy="3.5464" stroke="black" id="connector0pad" r="1.7008" stroke-width="1.13384"/>
      </g>
     </g>
    </g>
   </g>
  </g>
  <g partID="371960">
   <g transform="translate(124.026,19.736)">
    <g  id="copper0">
     <circle fill="none" cx="4.752"  cy="26.352" stroke="black" r="1.98" id="connector0pad" stroke-width="1.44"/>
     <circle fill="none" cx="4.752"  cy="4.752" stroke="black" r="1.98" id="connector1pad" stroke-width="1.44"/>
    </g>
   </g>
  </g>
  <g partID="375220">
   <g transform="translate(8.8264,48.536)">
    <g  id="copper0">
     <circle fill="none" cx="4.752"  cy="4.752" stroke="black" r="1.98" id="connector0pad" stroke-width="1.44"/>
     <circle fill="none" cx="4.752"  cy="19.152" stroke="black" r="1.98" id="connector1pad" stroke-width="1.44"/>
    </g>
   </g>
  </g>
  <g partID="396840">
   <g transform="translate(16.0264,26.936)">
    <g  id="copper0">
     <circle fill="none" cx="4.752"  cy="19.152" stroke="black" r="1.98" id="connector0pad" stroke-width="1.44"/>
     <circle fill="none" cx="4.752"  cy="4.752" stroke="black" r="1.98" id="connector1pad" stroke-width="1.44"/>
    </g>
   </g>
  </g>
  <g partID="14110">
   <line stroke="black" stroke-linecap="round" y1="26.332" x1="27.9784" y2="29.898" stroke-width="1.728" x2="27.9784"/>
  </g>
  <g partID="14040">
   <line stroke="black" stroke-linecap="round" y1="26.332" x1="35.1784" y2="29.898" stroke-width="1.728" x2="35.1784"/>
  </g>
  <g partID="13970">
   <line stroke="black" stroke-linecap="round" y1="26.332" x1="42.3784" y2="29.898" stroke-width="1.728" x2="42.3784"/>
  </g>
  <g partID="13900">
   <line stroke="black" stroke-linecap="round" y1="26.332" x1="49.5784" y2="29.898" stroke-width="1.728" x2="49.5784"/>
  </g>
  <g partID="13830">
   <line stroke="black" stroke-linecap="round" y1="26.332" x1="56.7784" y2="29.898" stroke-width="1.728" x2="56.7784"/>
  </g>
  <g partID="13760">
   <line stroke="black" stroke-linecap="round" y1="26.332" x1="63.9784" y2="29.898" stroke-width="1.728" x2="63.9784"/>
  </g>
  <g partID="13690">
   <line stroke="black" stroke-linecap="round" y1="26.332" x1="71.1784" y2="29.898" stroke-width="1.728" x2="71.1784"/>
  </g>
  <g partID="13620">
   <line stroke="black" stroke-linecap="round" y1="26.332" x1="78.3784" y2="29.898" stroke-width="1.728" x2="78.3784"/>
  </g>
  <g partID="13550">
   <line stroke="black" stroke-linecap="round" y1="26.332" x1="85.5784" y2="29.898" stroke-width="1.728" x2="85.5784"/>
  </g>
  <g partID="13480">
   <line stroke="black" stroke-linecap="round" y1="26.332" x1="92.7784" y2="29.898" stroke-width="1.728" x2="92.7784"/>
  </g>
  <g partID="13410">
   <line stroke="black" stroke-linecap="round" y1="26.332" x1="99.9784" y2="29.898" stroke-width="1.728" x2="99.9784"/>
  </g>
  <g partID="13340">
   <line stroke="black" stroke-linecap="round" y1="26.332" x1="107.178" y2="29.898" stroke-width="1.728" x2="107.178"/>
  </g>
  <g partID="13270">
   <line stroke="black" stroke-linecap="round" y1="26.332" x1="114.378" y2="29.898" stroke-width="1.728" x2="114.378"/>
  </g>
  <g partID="13200">
   <line stroke="black" stroke-linecap="round" y1="26.332" x1="121.578" y2="29.898" stroke-width="1.728" x2="121.578"/>
  </g>
  <g partID="13130">
   <line stroke="black" stroke-linecap="round" y1="55.078" x1="27.9784" y2="58.644" stroke-width="1.728" x2="27.9784"/>
  </g>
  <g partID="13060">
   <line stroke="black" stroke-linecap="round" y1="55.078" x1="35.1784" y2="58.644" stroke-width="1.728" x2="35.1784"/>
  </g>
  <g partID="12990">
   <line stroke="black" stroke-linecap="round" y1="55.078" x1="42.3784" y2="58.644" stroke-width="1.728" x2="42.3784"/>
  </g>
  <g partID="12920">
   <line stroke="black" stroke-linecap="round" y1="55.078" x1="49.5784" y2="58.644" stroke-width="1.728" x2="49.5784"/>
  </g>
  <g partID="12850">
   <line stroke="black" stroke-linecap="round" y1="55.078" x1="56.7784" y2="58.644" stroke-width="1.728" x2="56.7784"/>
  </g>
  <g partID="12780">
   <line stroke="black" stroke-linecap="round" y1="55.078" x1="63.9784" y2="58.644" stroke-width="1.728" x2="63.9784"/>
  </g>
  <g partID="12710">
   <line stroke="black" stroke-linecap="round" y1="55.078" x1="71.1784" y2="58.644" stroke-width="1.728" x2="71.1784"/>
  </g>
  <g partID="12600">
   <line stroke="black" stroke-linecap="round" y1="55.078" x1="78.3784" y2="58.644" stroke-width="1.728" x2="78.3784"/>
  </g>
  <g partID="12530">
   <line stroke="black" stroke-linecap="round" y1="55.078" x1="85.5784" y2="58.644" stroke-width="1.728" x2="85.5784"/>
  </g>
  <g partID="12460">
   <line stroke="black" stroke-linecap="round" y1="55.078" x1="92.7784" y2="58.644" stroke-width="1.728" x2="92.7784"/>
  </g>
  <g partID="12390">
   <line stroke="black" stroke-linecap="round" y1="55.078" x1="99.9784" y2="58.644" stroke-width="1.728" x2="99.9784"/>
  </g>
  <g partID="12320">
   <line stroke="black" stroke-linecap="round" y1="55.078" x1="107.178" y2="58.644" stroke-width="1.728" x2="107.178"/>
  </g>
  <g partID="12250">
   <line stroke="black" stroke-linecap="round" y1="55.078" x1="114.378" y2="58.644" stroke-width="1.728" x2="114.378"/>
  </g>
  <g partID="12180">
   <line stroke="black" stroke-linecap="round" y1="55.078" x1="121.578" y2="58.644" stroke-width="1.728" x2="121.578"/>
  </g>
  <g partID="29940">
   <line stroke="black" stroke-linecap="round" y1="65.988" x1="71.1784" y2="62.332" stroke-width="1.728" x2="71.1784"/>
  </g>
  <g partID="39570">
   <line stroke="black" stroke-linecap="round" y1="67.688" x1="69.4784" y2="67.688" stroke-width="1.728" x2="51.3684"/>
  </g>
  <g partID="411850">
   <line stroke="black" stroke-linecap="round" y1="2.888" x1="56.7784" y2="2.888" stroke-width="1.728" x2="6.3784"/>
  </g>
  <g partID="411580">
   <line stroke="black" stroke-linecap="round" y1="2.888" x1="6.3784" y2="8.244" stroke-width="1.728" x2="6.3784"/>
  </g>
  <g partID="84960">
   <line stroke="black" stroke-linecap="round" y1="8.298" x1="56.7784" y2="2.888" stroke-width="1.728" x2="56.7784"/>
  </g>
  <g partID="109540">
   <line stroke="black" stroke-linecap="round" y1="22.644" x1="71.1784" y2="18.988" stroke-width="1.728" x2="71.1784"/>
  </g>
  <g partID="115960">
   <line stroke="black" stroke-linecap="round" y1="51.588" x1="6.3784" y2="40.732" stroke-width="1.728" x2="6.3784"/>
  </g>
  <g partID="121330">
   <line stroke="black" stroke-linecap="round" y1="22.644" x1="78.3818" y2="18.988" stroke-width="1.728" x2="78.3886"/>
  </g>
  <g partID="126480">
   <line stroke="black" stroke-linecap="round" y1="22.644" x1="85.5784" y2="19.0013" stroke-width="1.728" x2="85.5784"/>
  </g>
  <g partID="358670">
   <line stroke="black" stroke-linecap="round" y1="17.1617" x1="63.8942" y2="11.35" stroke-width="1.728" x2="58.0479"/>
  </g>
  <g partID="136950">
   <line stroke="black" stroke-linecap="round" y1="17.2585" x1="69.4787" y2="17.1617" stroke-width="1.728" x2="63.8942"/>
  </g>
  <g partID="330470">
   <line stroke="black" stroke-linecap="round" y1="60.488" x1="20.7784" y2="60.4998" stroke-width="1.728" x2="8.0784"/>
  </g>
  <g partID="368910">
   <line stroke="black" stroke-linecap="round" y1="53.288" x1="20.7784" y2="60.488" stroke-width="1.728" x2="20.7784"/>
  </g>
  <g partID="162130">
   <line stroke="black" stroke-linecap="round" y1="53.288" x1="26.1884" y2="53.288" stroke-width="1.728" x2="20.7784"/>
  </g>
  <g partID="358270">
   <line stroke="black" stroke-linecap="round" y1="10.088" x1="78.3784" y2="16.0981" stroke-width="1.728" x2="84.3774"/>
  </g>
  <g partID="276980">
   <line stroke="black" stroke-linecap="round" y1="10.088" x1="65.7684" y2="10.088" stroke-width="1.728" x2="78.3784"/>
  </g>
  <g partID="281150">
   <line stroke="black" stroke-linecap="round" y1="2.88808" x1="78.4018" y2="8.88397" stroke-width="1.728" x2="84.3783"/>
  </g>
  <g partID="358400">
   <line stroke="black" stroke-linecap="round" y1="3.0144" x1="63.8944" y2="2.88808" stroke-width="1.728" x2="78.4018"/>
  </g>
  <g partID="280680">
   <line stroke="black" stroke-linecap="round" y1="8.82607" x1="58.0479" y2="3.0144" stroke-width="1.728" x2="63.8944"/>
  </g>
  <g partID="285370">
   <line stroke="black" stroke-linecap="round" y1="66.4223" x1="22.0441" y2="61.7919" stroke-width="1.728" x2="26.6745"/>
  </g>
  <g partID="397230">
   <line stroke="black" stroke-linecap="round" y1="38.888" x1="132.378" y2="38.888" stroke-width="1.728" x2="137.752"/>
  </g>
  <g partID="323450">
   <line stroke="black" stroke-linecap="round" y1="42.488" x1="103.578" y2="42.488" stroke-width="1.728" x2="125.178"/>
  </g>
  <g partID="397840">
   <line stroke="black" stroke-linecap="round" y1="42.488" x1="125.178" y2="38.888" stroke-width="1.728" x2="132.378"/>
  </g>
  <g partID="323360">
   <line stroke="black" stroke-linecap="round" y1="32.9537" x1="94.0441" y2="42.488" stroke-width="1.728" x2="103.578"/>
  </g>
  <g partID="330150">
   <line stroke="black" stroke-linecap="round" y1="38.888" x1="42.3784" y2="51.498" stroke-width="1.728" x2="42.3784"/>
  </g>
  <g partID="368820">
   <line stroke="black" stroke-linecap="round" y1="38.888" x1="20.7784" y2="38.888" stroke-width="1.728" x2="42.3784"/>
  </g>
  <g partID="329950">
   <line stroke="black" stroke-linecap="round" y1="25.7919" x1="7.6823" y2="38.888" stroke-width="1.728" x2="20.7784"/>
  </g>
  <g partID="330780">
   <line stroke="black" stroke-linecap="round" y1="87.5891" x1="110.731" y2="76.6071" stroke-width="1.728" x2="110.342"/>
  </g>
  <g partID="396560">
   <line stroke="black" stroke-linecap="round" y1="53.288" x1="132.378" y2="69.498" stroke-width="1.728" x2="132.378"/>
  </g>
  <g partID="357750">
   <line stroke="black" stroke-linecap="round" y1="38.888" x1="137.752" y2="38.888" stroke-width="1.728" x2="135.978"/>
  </g>
  <g partID="396100">
   <line stroke="black" stroke-linecap="round" y1="38.888" x1="135.978" y2="53.288" stroke-width="1.728" x2="132.378"/>
  </g>
  <g partID="397380">
   <line stroke="black" stroke-linecap="round" y1="46.088" x1="150.378" y2="98.4376" stroke-width="1.728" x2="150.378"/>
  </g>
  <g partID="357930">
   <line stroke="black" stroke-linecap="round" y1="46.088" x1="148.604" y2="46.088" stroke-width="1.728" x2="150.378"/>
  </g>
  <g partID="358200">
   <line stroke="black" stroke-linecap="round" y1="100.088" x1="141.641" y2="100.088" stroke-width="1.728" x2="134.168"/>
  </g>
  <g partID="366550">
   <line stroke="black" stroke-linecap="round" y1="73.5467" x1="43.6026" y2="68.9411" stroke-width="1.728" x2="48.3002"/>
  </g>
  <g partID="368230">
   <line stroke="black" stroke-linecap="round" y1="33.1774" x1="84.5855" y2="51.7986" stroke-width="1.728" x2="72.1713"/>
  </g>
  <g partID="370280">
   <line stroke="black" stroke-linecap="round" y1="46.288" x1="153.978" y2="2.888" stroke-width="1.728" x2="153.978"/>
  </g>
  <g partID="370010">
   <line stroke="black" stroke-linecap="round" y1="2.888" x1="153.978" y2="2.888" stroke-width="1.728" x2="85.5784"/>
  </g>
  <g partID="411310">
   <line stroke="black" stroke-linecap="round" y1="2.888" x1="85.5784" y2="8.388" stroke-width="1.728" x2="85.5784"/>
  </g>
  <g partID="369740">
   <line stroke="black" stroke-linecap="round" y1="46.1387" x1="148.604" y2="46.288" stroke-width="1.728" x2="153.978"/>
  </g>
  <g partID="371580">
   <line stroke="black" stroke-linecap="round" y1="17.088" x1="150.778" y2="38.888" stroke-width="1.728" x2="151.178"/>
  </g>
  <g partID="371690">
   <line stroke="black" stroke-linecap="round" y1="38.888" x1="151.178" y2="38.888" stroke-width="1.728" x2="148.604"/>
  </g>
  <g partID="371470">
   <line stroke="black" stroke-linecap="round" y1="17.288" x1="107.178" y2="17.088" stroke-width="1.728" x2="150.778"/>
  </g>
  <g partID="371360">
   <line stroke="black" stroke-linecap="round" y1="22.644" x1="107.178" y2="17.288" stroke-width="1.728" x2="107.178"/>
  </g>
  <g partID="372020">
   <line stroke="black" stroke-linecap="round" y1="24.488" x1="146.778" y2="29.862" stroke-width="1.728" x2="146.778"/>
  </g>
  <g partID="371990">
   <line stroke="black" stroke-linecap="round" y1="24.488" x1="130.568" y2="24.488" stroke-width="1.728" x2="146.778"/>
  </g>
  <g partID="372050">
   <line stroke="black" stroke-linecap="round" y1="33.289" x1="86.3789" y2="46.088" stroke-width="1.728" x2="92.7784"/>
  </g>
  <g partID="372640">
   <line stroke="black" stroke-linecap="round" y1="46.088" x1="92.7784" y2="46.088" stroke-width="1.728" x2="126.988"/>
  </g>
  <g partID="373940">
   <line stroke="black" stroke-linecap="round" y1="62.332" x1="78.3818" y2="65.988" stroke-width="1.728" x2="78.3886"/>
  </g>
  <g partID="374260">
   <line stroke="black" stroke-linecap="round" y1="73.188" x1="85.5886" y2="67.688" stroke-width="1.728" x2="85.5784"/>
  </g>
  <g partID="374610">
   <line stroke="black" stroke-linecap="round" y1="67.688" x1="85.5784" y2="62.332" stroke-width="1.728" x2="85.5784"/>
  </g>
  <g partID="374350">
   <line stroke="black" stroke-linecap="round" y1="69.388" x1="78.3886" y2="73.188" stroke-width="1.728" x2="78.3815"/>
  </g>
  <g partID="374480">
   <line stroke="black" stroke-linecap="round" y1="74.888" x1="87.2917" y2="74.888" stroke-width="1.728" x2="94.6571"/>
  </g>
  <g partID="376390">
   <line stroke="black" stroke-linecap="round" y1="38.888" x1="13.5784" y2="51.498" stroke-width="1.728" x2="13.5784"/>
  </g>
  <g partID="375800">
   <line stroke="black" stroke-linecap="round" y1="32.9919" x1="7.6823" y2="38.888" stroke-width="1.728" x2="13.5784"/>
  </g>
  <g partID="377390">
   <line stroke="black" stroke-linecap="round" y1="38.888" x1="107.178" y2="32.9537" stroke-width="1.728" x2="101.244"/>
  </g>
  <g partID="377170">
   <line stroke="black" stroke-linecap="round" y1="32.2654" x1="137.846" y2="35.288" stroke-width="1.728" x2="128.778"/>
  </g>
  <g partID="397990">
   <line stroke="black" stroke-linecap="round" y1="38.888" x1="125.178" y2="38.888" stroke-width="1.728" x2="107.178"/>
  </g>
  <g partID="396710">
   <line stroke="black" stroke-linecap="round" y1="35.288" x1="128.778" y2="38.888" stroke-width="1.728" x2="125.178"/>
  </g>
  <g partID="379730">
   <line stroke="black" stroke-linecap="round" y1="88.8746" x1="42.5246" y2="89.2765" stroke-width="1.728" x2="101.878"/>
  </g>
  <g partID="380470">
   <line stroke="black" stroke-linecap="round" y1="101.738" x1="6.3784" y2="110.888" stroke-width="1.728" x2="6.3784"/>
  </g>
  <g partID="380540">
   <line stroke="black" stroke-linecap="round" y1="110.888" x1="6.3784" y2="110.888" stroke-width="1.728" x2="18.9884"/>
  </g>
  <g partID="385750">
   <line stroke="black" stroke-linecap="round" y1="69.478" x1="13.5722" y2="98.4376" stroke-width="1.728" x2="13.4713"/>
  </g>
  <g partID="386020">
   <line stroke="black" stroke-linecap="round" y1="101.738" x1="150.378" y2="110.888" stroke-width="1.728" x2="150.378"/>
  </g>
  <g partID="386290">
   <line stroke="black" stroke-linecap="round" y1="110.888" x1="150.378" y2="110.888" stroke-width="1.728" x2="51.3684"/>
  </g>
  <g partID="393880">
   <line stroke="black" stroke-linecap="round" y1="87.2713" x1="27.1586" y2="74.888" stroke-width="1.728" x2="20.7784"/>
  </g>
  <g partID="398100">
   <line stroke="black" stroke-linecap="round" y1="64.088" x1="92.7784" y2="73.9815" stroke-width="1.728" x2="108.815"/>
  </g>
  <g partID="394870">
   <line stroke="black" stroke-linecap="round" y1="62.332" x1="92.7784" y2="64.088" stroke-width="1.728" x2="92.7784"/>
  </g>
  <g partID="423560">
   <line stroke="black" stroke-linecap="round" y1="96.488" x1="78.3784" y2="76.588" stroke-width="1.728" x2="78.3784"/>
  </g>
  <g partID="395610">
   <line stroke="black" stroke-linecap="round" y1="89.288" x1="78.5784" y2="96.488" stroke-width="1.728" x2="78.3784"/>
  </g>
  <g partID="395400">
   <line stroke="black" stroke-linecap="round" y1="89.288" x1="101.878" y2="89.288" stroke-width="1.728" x2="78.5784"/>
  </g>
  <g partID="397070">
   <line stroke="black" stroke-linecap="round" y1="46.088" x1="31.5784" y2="51.687" stroke-width="1.728" x2="34.3779"/>
  </g>
  <g partID="397020">
   <line stroke="black" stroke-linecap="round" y1="46.088" x1="22.5684" y2="46.088" stroke-width="1.728" x2="31.5784"/>
  </g>
  <g partID="397140">
   <line stroke="black" stroke-linecap="round" y1="18.5919" x1="7.6823" y2="30.4223" stroke-width="1.728" x2="19.5127"/>
  </g>
  <g partID="400190">
   <line stroke="black" stroke-linecap="round" y1="82.688" x1="103.378" y2="87.5888" stroke-width="1.728" x2="103.527"/>
  </g>
  <g partID="399980">
   <line stroke="black" stroke-linecap="round" y1="80.136" x1="94.464" y2="82.688" stroke-width="1.728" x2="103.378"/>
  </g>
  <g partID="404270">
   <line stroke="black" stroke-linecap="round" y1="40.688" x1="69.3784" y2="33.4432" stroke-width="1.728" x2="70.8274"/>
  </g>
  <g partID="403780">
   <line stroke="black" stroke-linecap="round" y1="41.3514" x1="50.7105" y2="40.688" stroke-width="1.728" x2="69.3784"/>
  </g>
  <g partID="404760">
   <line stroke="black" stroke-linecap="round" y1="44.28" x1="84.6" y2="51.7829" stroke-width="1.728" x2="79.3473"/>
  </g>
  <g partID="405370">
   <line stroke="black" stroke-linecap="round" y1="73.1528" x1="6.717" y2="98.4376" stroke-width="1.728" x2="6.3784"/>
  </g>
  <g partID="414870">
   <line stroke="black" stroke-linecap="round" y1="10.881" x1="95.1758" y2="10.088" stroke-width="1.728" x2="87.2784"/>
  </g>
  <g partID="415170">
   <line stroke="black" stroke-linecap="round" y1="10.9098" x1="16.3246" y2="10.088" stroke-width="1.728" x2="8.2224"/>
  </g>
  <g partID="418260">
   <line stroke="black" stroke-linecap="round" y1="82.088" x1="38.7784" y2="82.088" stroke-width="1.728" x2="71.1784"/>
  </g>
  <g partID="417650">
   <line stroke="black" stroke-linecap="round" y1="85.688" x1="35.1784" y2="82.088" stroke-width="1.728" x2="38.7784"/>
  </g>
  <g partID="418870">
   <line stroke="black" stroke-linecap="round" y1="82.088" x1="71.1784" y2="69.388" stroke-width="1.728" x2="71.1784"/>
  </g>
  <g partID="417040">
   <line stroke="black" stroke-linecap="round" y1="100.088" x1="31.5784" y2="85.688" stroke-width="1.728" x2="35.1784"/>
  </g>
  <g partID="416430">
   <line stroke="black" stroke-linecap="round" y1="100.088" x1="15.116" y2="100.088" stroke-width="1.728" x2="31.5784"/>
  </g>
  <g partID="421840">
   <line stroke="black" stroke-linecap="round" y1="85.688" x1="139.578" y2="85.688" stroke-width="1.728" x2="121.578"/>
  </g>
  <g partID="420660">
   <line stroke="black" stroke-linecap="round" y1="100.088" x1="121.578" y2="100.088" stroke-width="1.728" x2="42.3784"/>
  </g>
  <g partID="421250">
   <line stroke="black" stroke-linecap="round" y1="85.688" x1="121.578" y2="100.088" stroke-width="1.728" x2="121.578"/>
  </g>
  <g partID="419480">
   <line stroke="black" stroke-linecap="round" y1="47.914" x1="139.578" y2="85.688" stroke-width="1.728" x2="139.578"/>
  </g>
  <g partID="420070">
   <line stroke="black" stroke-linecap="round" y1="100.088" x1="42.3784" y2="106.487" stroke-width="1.728" x2="29.5794"/>
  </g>
  <g partID="423260">
   <line stroke="black" stroke-linecap="round" y1="92.888" x1="146.778" y2="98.6118" stroke-width="1.728" x2="149.64"/>
  </g>
  <g partID="422990">
   <line stroke="black" stroke-linecap="round" y1="47.914" x1="146.778" y2="92.888" stroke-width="1.728" x2="146.778"/>
  </g>
  <g partID="424440">
   <line stroke="black" stroke-linecap="round" y1="69.478" x1="20.7784" y2="72.972" stroke-width="1.728" x2="20.7784"/>
  </g>
 </g>
</svg>
