<?xml version='1.0' encoding='UTF-8' standalone='no'?>
<!-- Created with Fritzing (http://www.fritzing.org/) -->
<svg xmlns="http://www.w3.org/2000/svg" width="2.16535in" x="0in" version="1.2" y="0in"  height="1.5748in" viewBox="0 0 155.906 113.386" baseProfile="tiny" xmlns:svg="http://www.w3.org/2000/svg">
 <g transform="matrix(-1, 0, 0, 1, 155.906, 0)">
  <g partID="12040">
   <g id="board">
    <rect width="155.33" x="0.576" y="0.576" fill="none" height="112.81" stroke="black" fill-opacity="0.5" id="boardoutline" stroke-width="0.5"/>
   </g>
  </g>
  <g partID="447940">
   <g transform="translate(2.96154,47.3055)">
    <g  id="groundplane">
     <polygon fill="black" points="148.32,0,148.32,0.432,148.176,0.432,148.176,0.72,148.032,0.72,148.032,0.864,147.888,0.864,147.888,1.152,147.744,1.152,147.744,1.296,147.6,1.296,147.6,1.584,147.456,1.584,147.456,1.728,147.312,1.728,147.312,1.872,147.168,1.872,147.168,2.016,147.024,2.016,147.024,2.16,146.88,2.16,146.88,2.304,146.736,2.304,146.736,2.448,146.448,2.448,146.448,2.592,146.304,2.592,146.304,2.736,146.016,2.736,146.016,2.88,145.728,2.88,145.728,3.024,145.44,3.024,145.44,3.168,145.152,3.168,145.152,3.312,144.288,3.312,144.288,3.456,149.76,3.456,149.76,0"  stroke="none" stroke-width="0"/>
     <polygon fill="black" points="139.536,2.592,139.536,3.456,142.992,3.456,142.992,3.312,142.128,3.312,142.128,3.168,141.696,3.168,141.696,3.024,141.408,3.024,141.408,2.88,141.12,2.88,141.12,2.736,140.976,2.736,140.976,2.592"  stroke="none" stroke-width="0"/>
     <polygon fill="black" points="139.536,3.456,139.536,3.6,149.76,3.6,149.76,3.456"  stroke="none" stroke-width="0"/>
     <polygon fill="black" points="139.536,3.456,139.536,3.6,149.76,3.6,149.76,3.456"  stroke="none" stroke-width="0"/>
     <polygon fill="black" points="139.536,3.6,139.536,5.184,139.68,5.184,139.68,39.312,139.536,39.312,139.536,39.6,139.392,39.6,139.392,39.888,139.248,39.888,139.248,40.032,139.104,40.032,139.104,40.32,138.96,40.32,138.96,40.464,138.672,40.464,138.672,40.608,138.528,40.608,138.528,40.752,138.24,40.752,138.24,40.896,137.952,40.896,137.952,41.04,137.088,41.04,137.088,41.184,121.536,41.184,121.536,47.376,134.208,47.376,134.208,47.808,148.176,47.808,148.176,47.952,149.76,47.952,149.76,3.6"  stroke="none" stroke-width="0"/>
     <polygon fill="black" points="121.536,47.376,121.536,49.68,121.392,49.68,121.392,50.256,121.248,50.256,121.248,50.544,121.104,50.544,121.104,50.832,120.96,50.832,120.96,50.976,120.816,50.976,120.816,51.12,120.672,51.12,120.672,51.264,120.528,51.264,120.528,51.408,120.384,51.408,120.384,51.552,120.24,51.552,120.24,51.696,119.952,51.696,119.952,51.84,119.52,51.84,119.52,51.984,52.704,51.984,52.704,53.568,52.848,53.568,52.848,53.856,52.992,53.856,52.992,54.144,53.136,54.144,53.136,54.576,53.28,54.576,53.28,55.152,53.424,55.152,53.424,56.88,53.28,56.88,53.28,57.456,124.272,57.456,124.272,47.376"  stroke="none" stroke-width="0"/>
     <polygon fill="black" points="134.208,47.808,134.208,47.952,135.648,47.952,135.648,47.808"  stroke="none" stroke-width="0"/>
     <polygon fill="black" points="144.72,47.808,144.72,47.952,146.304,47.952,146.304,47.808"  stroke="none" stroke-width="0"/>
     <polygon fill="black" points="25.632,48.528,25.632,50.112,25.776,50.112,25.776,50.4,25.92,50.4,25.92,50.688,26.064,50.688,26.064,51.264,26.208,51.264,26.208,53.568,26.064,53.568,26.064,54.144,25.92,54.144,25.92,54.432,25.776,54.432,25.776,54.72,25.632,54.72,25.632,55.008,25.488,55.008,25.488,55.152,25.344,55.152,25.344,55.44,25.2,55.44,25.2,55.584,25.056,55.584,25.056,55.728,24.912,55.728,24.912,55.872,24.768,55.872,24.768,56.016,24.624,56.016,24.624,56.16,24.48,56.16,24.48,56.304,24.336,56.304,24.336,56.448,24.192,56.448,24.192,56.592,23.904,56.592,23.904,56.736,23.76,56.736,23.76,56.88,23.472,56.88,23.472,57.024,23.184,57.024,23.184,57.168,22.752,57.168,22.752,57.312,22.176,57.312,22.176,57.456,30.672,57.456,30.672,54.576,30.816,54.576,30.816,54.144,30.96,54.144,30.96,53.856,31.104,53.856,31.104,53.568,31.248,53.568,31.248,53.424,31.392,53.424,31.392,53.136,31.536,53.136,31.536,52.992,31.68,52.992,31.68,52.848,31.824,52.848,31.824,52.56,31.968,52.56,31.968,52.416,32.112,52.416,32.112,52.272,32.4,52.272,32.4,52.128,32.544,52.128,32.544,51.984,32.688,51.984,32.688,51.84,32.832,51.84,32.832,51.696,33.12,51.696,33.12,51.552,33.408,51.552,33.408,51.408,33.696,51.408,33.696,51.264,34.128,51.264,34.128,51.12,34.416,51.12,34.416,50.832,34.56,50.832,34.56,50.544,34.704,50.544,34.704,50.256,34.848,50.256,34.848,49.968,34.992,49.968,34.992,48.528"  stroke="none" stroke-width="0"/>
     <polygon fill="black" points="41.328,51.984,41.328,52.272,41.184,52.272,41.184,52.56,41.04,52.56,41.04,52.848,40.896,52.848,40.896,53.136,40.752,53.136,40.752,53.424,40.608,53.424,40.608,57.168,40.464,57.168,40.464,57.744,40.32,57.744,40.32,58.032,40.176,58.032,40.176,58.32,40.032,58.32,40.032,58.608,39.888,58.608,39.888,58.752,39.744,58.752,39.744,59.04,39.6,59.04,39.6,59.184,39.456,59.184,39.456,59.328,39.312,59.328,39.312,59.472,39.168,59.472,39.168,59.616,39.024,59.616,39.024,59.76,38.88,59.76,38.88,59.904,38.736,59.904,38.736,60.048,38.592,60.048,38.592,60.192,38.304,60.192,38.304,60.336,38.16,60.336,38.16,60.48,37.872,60.48,37.872,60.624,37.584,60.624,37.584,60.768,37.152,60.768,37.152,60.912,36.576,60.912,36.576,61.056,47.376,61.056,47.376,60.912,46.8,60.912,46.8,60.768,46.368,60.768,46.368,60.624,46.08,60.624,46.08,60.48,45.792,60.48,45.792,60.336,45.648,60.336,45.648,60.192,45.504,60.192,45.504,60.048,45.216,60.048,45.216,59.904,45.072,59.904,45.072,59.76,44.928,59.76,44.928,59.616,44.784,59.616,44.784,59.472,44.64,59.472,44.64,59.328,44.496,59.328,44.496,59.184,44.352,59.184,44.352,58.896,44.208,58.896,44.208,58.752,44.064,58.752,44.064,58.608,43.92,58.608,43.92,58.32,43.776,58.32,43.776,58.032,43.632,58.032,43.632,57.6,43.488,57.6,43.488,57.168,43.344,57.168,43.344,55.008,43.488,55.008,43.488,54.432,43.632,54.432,43.632,54,43.776,54,43.776,53.712,43.92,53.712,43.92,53.568,44.064,53.568,44.064,51.984"  stroke="none" stroke-width="0"/>
     <polygon fill="black" points="14.832,55.584,14.832,57.024,19.008,57.024,19.008,56.88,18.72,56.88,18.72,56.736,18.432,56.736,18.432,56.592,18.288,56.592,18.288,56.448,18.144,56.448,18.144,56.304,17.856,56.304,17.856,56.16,17.712,56.16,17.712,56.016,17.568,56.016,17.568,55.872,17.424,55.872,17.424,55.584"  stroke="none" stroke-width="0"/>
     <polygon fill="black" points="0,56.736,0,57.024,2.304,57.024,2.304,56.88,1.728,56.88,1.728,56.736"  stroke="none" stroke-width="0"/>
     <polygon fill="black" points="4.176,56.88,4.176,57.024,5.76,57.024,5.76,56.88"  stroke="none" stroke-width="0"/>
     <polygon fill="black" points="144.72,56.88,144.72,57.024,146.304,57.024,146.304,56.88"  stroke="none" stroke-width="0"/>
     <polygon fill="black" points="148.176,56.88,148.176,57.024,149.76,57.024,149.76,56.88"  stroke="none" stroke-width="0"/>
     <polygon fill="black" points="0,57.024,0,57.168,19.296,57.168,19.296,57.024"  stroke="none" stroke-width="0"/>
     <polygon fill="black" points="0,57.024,0,57.168,19.296,57.168,19.296,57.024"  stroke="none" stroke-width="0"/>
     <polygon fill="black" points="0,57.024,0,57.168,19.296,57.168,19.296,57.024"  stroke="none" stroke-width="0"/>
     <polygon fill="black" points="134.208,57.024,134.208,57.168,149.76,57.168,149.76,57.024"  stroke="none" stroke-width="0"/>
     <polygon fill="black" points="134.208,57.024,134.208,57.168,149.76,57.168,149.76,57.024"  stroke="none" stroke-width="0"/>
     <polygon fill="black" points="0,57.168,0,57.456,20.16,57.456,20.16,57.312,19.584,57.312,19.584,57.168"  stroke="none" stroke-width="0"/>
     <polygon fill="black" points="134.208,57.168,134.208,57.456,149.76,57.456,149.76,57.168"  stroke="none" stroke-width="0"/>
     <polygon fill="black" points="0,57.456,0,57.6,30.816,57.6,30.816,57.456"  stroke="none" stroke-width="0"/>
     <polygon fill="black" points="0,57.456,0,57.6,30.816,57.6,30.816,57.456"  stroke="none" stroke-width="0"/>
     <polygon fill="black" points="53.136,57.456,53.136,57.6,149.76,57.6,149.76,57.456"  stroke="none" stroke-width="0"/>
     <polygon fill="black" points="53.136,57.456,53.136,57.6,149.76,57.6,149.76,57.456"  stroke="none" stroke-width="0"/>
     <polygon fill="black" points="0,57.6,0,61.056,34.56,61.056,34.56,60.912,33.984,60.912,33.984,60.768,33.696,60.768,33.696,60.624,33.408,60.624,33.408,60.48,33.12,60.48,33.12,60.336,32.832,60.336,32.832,60.192,32.688,60.192,32.688,60.048,32.544,60.048,32.544,59.904,32.256,59.904,32.256,59.76,32.112,59.76,32.112,59.616,31.968,59.616,31.968,59.472,31.824,59.472,31.824,59.184,31.68,59.184,31.68,59.04,31.536,59.04,31.536,58.896,31.392,58.896,31.392,58.752,31.248,58.752,31.248,58.464,31.104,58.464,31.104,58.176,30.96,58.176,30.96,57.888,30.816,57.888,30.816,57.6"  stroke="none" stroke-width="0"/>
     <polygon fill="black" points="53.136,57.6,53.136,57.888,52.992,57.888,52.992,58.176,52.848,58.176,52.848,58.464,52.704,58.464,52.704,58.752,52.56,58.752,52.56,58.896,52.416,58.896,52.416,59.04,52.272,59.04,52.272,59.328,52.128,59.328,52.128,59.472,51.984,59.472,51.984,59.616,51.84,59.616,51.84,59.76,51.696,59.76,51.696,59.904,51.408,59.904,51.408,60.048,51.264,60.048,51.264,60.192,51.12,60.192,51.12,60.336,50.832,60.336,50.832,60.48,50.544,60.48,50.544,60.624,50.256,60.624,50.256,60.768,49.968,60.768,49.968,60.912,49.392,60.912,49.392,61.056,149.76,61.056,149.76,57.6"  stroke="none" stroke-width="0"/>
     <polygon fill="black" points="0,61.056,0,61.2,149.76,61.2,149.76,61.056"  stroke="none" stroke-width="0"/>
     <polygon fill="black" points="0,61.056,0,61.2,149.76,61.2,149.76,61.056"  stroke="none" stroke-width="0"/>
     <polygon fill="black" points="0,61.056,0,61.2,149.76,61.2,149.76,61.056"  stroke="none" stroke-width="0"/>
     <polygon fill="black" points="0,61.2,0,62.784,149.76,62.784,149.76,61.2"  stroke="none" stroke-width="0"/>
     <g  id="connector0pad">
      <circle fill="black" cx="144.302"  cy="9.32962" stroke="none" r="2.7" stroke-width="0"/>
     </g>
    </g>
   </g>
  </g>
  <g partID="447790">
   <g transform="translate(2.92185,3.41415)">
    <g  id="groundplane">
     <polygon fill="black" points="0,0,0,1.872,61.776,1.872,61.776,2.016,62.352,2.016,62.352,2.16,83.808,2.16,83.808,2.304,84.24,2.304,84.24,2.448,84.528,2.448,84.528,2.592,84.816,2.592,84.816,2.736,84.96,2.736,84.96,2.88,85.248,2.88,85.248,3.024,85.392,3.024,85.392,3.168,85.536,3.168,85.536,3.312,85.68,3.312,85.68,3.456,85.824,3.456,85.824,3.6,85.968,3.6,85.968,3.744,86.112,3.744,86.112,3.888,86.256,3.888,86.256,4.032,86.4,4.032,86.4,4.32,86.544,4.32,86.544,4.464,86.688,4.464,86.688,4.752,86.832,4.752,86.832,5.04,86.976,5.04,86.976,5.328,87.12,5.328,87.12,5.904,87.264,5.904,87.264,7.92,87.12,7.92,87.12,8.496,86.976,8.496,86.976,8.784,86.832,8.784,86.832,9.072,86.688,9.072,86.688,9.36,86.544,9.36,86.544,9.648,86.4,9.648,86.4,9.792,86.256,9.792,86.256,11.232,86.4,11.232,86.4,11.52,86.544,11.52,86.544,11.664,86.688,11.664,86.688,11.952,86.832,11.952,86.832,12.24,86.976,12.24,86.976,12.528,87.12,12.528,87.12,13.104,87.264,13.104,87.264,15.12,87.12,15.12,87.12,16.272,98.208,16.272,98.208,16.416,98.64,16.416,98.64,16.56,98.928,16.56,98.928,16.704,99.216,16.704,99.216,16.848,100.8,16.848,100.8,13.248,100.944,13.248,100.944,12.672,101.088,12.672,101.088,12.384,101.232,12.384,101.232,12.096,101.376,12.096,101.376,11.952,101.52,11.952,101.52,11.808,101.664,11.808,101.664,11.664,101.808,11.664,101.808,11.52,101.952,11.52,101.952,11.376,102.24,11.376,102.24,11.232,102.528,11.232,102.528,11.088,102.96,11.088,102.96,10.944,120.528,10.944,120.528,10.8,149.76,10.8,149.76,0"  stroke="none" stroke-width="0"/>
     <polygon fill="black" points="0,1.872,0,2.016,1.728,2.016,1.728,1.872"  stroke="none" stroke-width="0"/>
     <polygon fill="black" points="4.608,1.872,4.608,2.016,5.04,2.016,5.04,2.16,5.328,2.16,5.328,2.304,5.616,2.304,5.616,2.448,5.904,2.448,5.904,2.592,6.048,2.592,6.048,2.736,6.336,2.736,6.336,2.88,6.48,2.88,6.48,3.024,6.624,3.024,6.624,3.168,6.768,3.168,6.768,3.312,6.912,3.312,6.912,3.456,7.056,3.456,7.056,3.6,7.2,3.6,7.2,3.744,7.344,3.744,7.344,3.888,7.488,3.888,7.488,4.176,7.632,4.176,7.632,4.32,7.776,4.32,7.776,4.608,7.92,4.608,7.92,4.896,8.064,4.896,8.064,5.328,8.208,5.328,8.208,5.904,8.352,5.904,8.352,7.92,8.208,7.92,8.208,8.496,8.064,8.496,8.064,8.928,7.92,8.928,7.92,9.216,7.776,9.216,7.776,9.504,7.632,9.504,7.632,9.648,7.488,9.648,7.488,11.376,7.632,11.376,7.632,11.52,7.776,11.52,7.776,11.808,7.92,11.808,7.92,11.952,48.672,11.952,48.672,1.872"  stroke="none" stroke-width="0"/>
     <polygon fill="black" points="62.784,2.16,62.784,2.304,63.072,2.304,63.072,2.448,63.36,2.448,63.36,2.592,63.504,2.592,63.504,2.736,63.792,2.736,63.792,2.88,63.936,2.88,63.936,3.024,64.08,3.024,64.08,3.168,64.224,3.168,64.224,3.312,64.368,3.312,64.368,3.456,64.512,3.456,64.512,3.6,64.656,3.6,64.656,3.744,76.32,3.744,76.32,3.888,76.752,3.888,76.752,4.032,77.04,4.032,77.04,4.176,78.48,4.176,78.48,4.032,78.624,4.032,78.624,3.744,78.768,3.744,78.768,3.6,78.912,3.6,78.912,3.456,79.056,3.456,79.056,3.312,79.2,3.312,79.2,3.168,79.488,3.168,79.488,3.024,79.632,3.024,79.632,2.88,79.776,2.88,79.776,2.736,80.064,2.736,80.064,2.592,80.352,2.592,80.352,2.448,80.64,2.448,80.64,2.304,81.072,2.304,81.072,2.16"  stroke="none" stroke-width="0"/>
     <polygon fill="black" points="61.776,11.808,61.776,11.952,63.36,11.952,63.36,11.808"  stroke="none" stroke-width="0"/>
     <polygon fill="black" points="7.92,11.952,7.92,12.096,63.36,12.096,63.36,11.952"  stroke="none" stroke-width="0"/>
     <polygon fill="black" points="7.92,11.952,7.92,12.096,63.36,12.096,63.36,11.952"  stroke="none" stroke-width="0"/>
     <polygon fill="black" points="8.064,12.096,8.064,12.528,8.208,12.528,8.208,13.104,8.352,13.104,8.352,14.544,8.496,14.544,8.496,14.688,8.64,14.688,8.64,14.832,8.784,14.832,8.784,14.976,8.928,14.976,8.928,15.12,9.072,15.12,9.072,15.264,9.216,15.264,9.216,15.408,9.36,15.408,9.36,15.552,9.504,15.552,9.504,15.696,9.648,15.696,9.648,15.84,9.792,15.84,9.792,15.984,9.936,15.984,9.936,16.128,10.08,16.128,10.08,16.272,55.008,16.272,55.008,16.416,55.44,16.416,55.44,16.56,55.728,16.56,55.728,16.704,56.016,16.704,56.016,16.848,56.304,16.848,56.304,16.992,56.448,16.992,56.448,17.136,57.888,17.136,57.888,16.992,58.176,16.992,58.176,16.848,58.32,16.848,58.32,16.704,58.608,16.704,58.608,16.56,58.896,16.56,58.896,16.416,59.328,16.416,59.328,16.272,63.36,16.272,63.36,15.408,63.216,15.408,63.216,12.816,63.36,12.816,63.36,12.096"  stroke="none" stroke-width="0"/>
     <polygon fill="black" points="10.224,16.272,10.224,16.416,10.368,16.416,10.368,16.56,10.512,16.56,10.512,16.704,10.656,16.704,10.656,16.848,10.8,16.848,10.8,16.992,10.944,16.992,10.944,17.136,11.088,17.136,11.088,17.28,11.232,17.28,11.232,17.424,11.376,17.424,11.376,17.568,11.52,17.568,11.52,17.712,11.664,17.712,11.664,17.856,11.808,17.856,11.808,18,11.952,18,11.952,18.144,12.096,18.144,12.096,18.288,12.24,18.288,12.24,18.432,12.384,18.432,12.384,18.576,12.528,18.576,12.528,18.72,12.672,18.72,12.672,18.864,12.816,18.864,12.816,19.008,12.96,19.008,12.96,19.152,13.104,19.152,13.104,19.296,13.248,19.296,13.248,19.44,13.392,19.44,13.392,19.584,13.536,19.584,13.536,19.728,13.68,19.728,13.68,19.872,13.824,19.872,13.824,20.016,13.968,20.016,13.968,20.16,14.112,20.16,14.112,20.304,14.256,20.304,14.256,20.448,14.4,20.448,14.4,20.592,14.544,20.592,14.544,20.736,14.688,20.736,14.688,20.88,14.832,20.88,14.832,21.024,14.976,21.024,14.976,21.168,15.12,21.168,15.12,21.312,15.264,21.312,15.264,21.456,15.408,21.456,15.408,21.6,15.552,21.6,15.552,21.744,15.696,21.744,15.696,21.888,15.84,21.888,15.84,22.032,15.984,22.032,15.984,22.176,16.128,22.176,16.128,22.32,16.272,22.32,16.272,22.464,16.416,22.464,16.416,22.608,16.56,22.608,16.56,22.752,16.704,22.752,16.704,22.896,16.848,22.896,16.848,23.04,16.992,23.04,16.992,23.184,17.136,23.184,17.136,23.328,17.28,23.328,17.28,23.472,19.728,23.472,19.728,20.016,19.872,20.016,19.872,19.584,20.016,19.584,20.016,19.152,20.16,19.152,20.16,18.864,20.304,18.864,20.304,18.72,20.448,18.72,20.448,18.432,20.592,18.432,20.592,18.288,20.736,18.288,20.736,18.144,20.88,18.144,20.88,17.856,21.024,17.856,21.024,17.712,21.168,17.712,21.168,17.568,21.312,17.568,21.312,17.424,21.6,17.424,21.6,17.28,21.744,17.28,21.744,17.136,21.888,17.136,21.888,16.992,22.176,16.992,22.176,16.848,22.32,16.848,22.32,16.704,22.608,16.704,22.608,16.56,22.896,16.56,22.896,16.416,23.328,16.416,23.328,16.272"  stroke="none" stroke-width="0"/>
     <polygon fill="black" points="26.208,16.272,26.208,16.416,26.64,16.416,26.64,16.56,26.928,16.56,26.928,16.704,27.216,16.704,27.216,16.848,27.504,16.848,27.504,16.992,27.648,16.992,27.648,17.136,29.088,17.136,29.088,16.992,29.376,16.992,29.376,16.848,29.52,16.848,29.52,16.704,29.808,16.704,29.808,16.56,30.096,16.56,30.096,16.416,30.528,16.416,30.528,16.272"  stroke="none" stroke-width="0"/>
     <polygon fill="black" points="33.408,16.272,33.408,16.416,33.84,16.416,33.84,16.56,34.128,16.56,34.128,16.704,34.416,16.704,34.416,16.848,34.704,16.848,34.704,16.992,34.848,16.992,34.848,17.136,36.288,17.136,36.288,16.992,36.576,16.992,36.576,16.848,36.72,16.848,36.72,16.704,37.008,16.704,37.008,16.56,37.296,16.56,37.296,16.416,37.728,16.416,37.728,16.272"  stroke="none" stroke-width="0"/>
     <polygon fill="black" points="40.608,16.272,40.608,16.416,41.04,16.416,41.04,16.56,41.328,16.56,41.328,16.704,41.616,16.704,41.616,16.848,41.904,16.848,41.904,16.992,42.048,16.992,42.048,17.136,43.488,17.136,43.488,16.992,43.776,16.992,43.776,16.848,43.92,16.848,43.92,16.704,44.208,16.704,44.208,16.56,44.496,16.56,44.496,16.416,44.928,16.416,44.928,16.272"  stroke="none" stroke-width="0"/>
     <polygon fill="black" points="47.808,16.272,47.808,16.416,48.24,16.416,48.24,16.56,48.528,16.56,48.528,16.704,48.816,16.704,48.816,16.848,49.104,16.848,49.104,16.992,49.248,16.992,49.248,17.136,50.688,17.136,50.688,16.992,50.976,16.992,50.976,16.848,51.12,16.848,51.12,16.704,51.408,16.704,51.408,16.56,51.696,16.56,51.696,16.416,52.128,16.416,52.128,16.272"  stroke="none" stroke-width="0"/>
     <polygon fill="black" points="91.008,16.272,91.008,16.416,91.44,16.416,91.44,16.56,91.728,16.56,91.728,16.704,92.016,16.704,92.016,16.848,92.304,16.848,92.304,16.992,92.448,16.992,92.448,17.136,93.888,17.136,93.888,16.992,94.176,16.992,94.176,16.848,94.32,16.848,94.32,16.704,94.608,16.704,94.608,16.56,94.896,16.56,94.896,16.416,95.328,16.416,95.328,16.272"  stroke="none" stroke-width="0"/>
     <g  id="connector0pad">
      <circle fill="black" cx="91.8259"  cy="5.07" stroke="none" r="2.7" stroke-width="0"/>
     </g>
    </g>
   </g>
  </g>
  <g partID="447800">
   <g transform="translate(126.432,27.648)">
    <g  id="groundplane">
     <g  id="connector0pad">
      <polygon fill="black" points="6.192,0,6.192,0.144,6.048,0.144,6.048,0.288,5.904,0.288,5.904,0.432,5.76,0.432,5.76,0.576,5.616,0.576,5.616,0.72,5.472,0.72,5.472,0.864,5.328,0.864,5.328,1.008,5.04,1.008,5.04,1.152,4.896,1.152,4.896,1.296,4.608,1.296,4.608,1.44,4.32,1.44,4.32,1.584,3.888,1.584,3.888,1.728,3.312,1.728,3.312,1.872,0,1.872,0,2.88,0.144,2.88,0.144,4.464,1.584,4.464,1.584,4.32,2.016,4.32,2.016,4.176,2.448,4.176,2.448,4.032,2.88,4.032,2.88,3.888,3.312,3.888,3.312,3.744,3.744,3.744,3.744,3.6,4.176,3.6,4.176,3.456,4.608,3.456,4.608,3.312,5.04,3.312,5.04,3.168,5.472,3.168,5.472,3.024,5.904,3.024,5.904,2.88,6.336,2.88,6.336,2.736,6.768,2.736,6.768,2.592,7.2,2.592,7.2,2.448,7.632,2.448,7.632,2.304,8.064,2.304,8.064,2.16,8.208,2.16,8.208,0"  stroke="none" stroke-width="0"/>
     </g>
    </g>
   </g>
  </g>
  <g partID="447810">
   <g transform="translate(45.216,35.856)">
    <g  id="groundplane">
     <polygon fill="black" points="0,0,0,0.864,3.312,0.864,3.312,0.72,2.736,0.72,2.736,0.576,2.448,0.576,2.448,0.432,2.16,0.432,2.16,0.288,1.872,0.288,1.872,0.144,1.584,0.144,1.584,0"  stroke="none" stroke-width="0"/>
     <polygon fill="black" points="7.056,0,7.056,0.144,6.912,0.144,6.912,0.288,6.624,0.288,6.624,0.432,6.336,0.432,6.336,0.576,5.904,0.576,5.904,0.72,5.328,0.72,5.328,0.864,10.512,0.864,10.512,0.72,9.936,0.72,9.936,0.576,9.648,0.576,9.648,0.432,9.36,0.432,9.36,0.288,9.072,0.288,9.072,0.144,8.784,0.144,8.784,0"  stroke="none" stroke-width="0"/>
     <polygon fill="black" points="14.256,0,14.256,0.144,14.112,0.144,14.112,0.288,13.824,0.288,13.824,0.432,13.536,0.432,13.536,0.576,13.104,0.576,13.104,0.72,12.528,0.72,12.528,0.864,17.712,0.864,17.712,0.72,17.136,0.72,17.136,0.576,16.848,0.576,16.848,0.432,16.56,0.432,16.56,0.288,16.272,0.288,16.272,0.144,15.984,0.144,15.984,0"  stroke="none" stroke-width="0"/>
     <polygon fill="black" points="21.456,0,21.456,0.144,21.312,0.144,21.312,0.288,21.024,0.288,21.024,0.432,20.736,0.432,20.736,0.576,20.304,0.576,20.304,0.72,19.728,0.72,19.728,0.864,24.912,0.864,24.912,0.72,24.336,0.72,24.336,0.576,24.048,0.576,24.048,0.432,23.76,0.432,23.76,0.288,23.472,0.288,23.472,0.144,23.184,0.144,23.184,0"  stroke="none" stroke-width="0"/>
     <polygon fill="black" points="28.656,0,28.656,0.144,28.512,0.144,28.512,0.288,28.224,0.288,28.224,0.432,27.936,0.432,27.936,0.576,27.504,0.576,27.504,0.72,26.928,0.72,26.928,0.864,32.112,0.864,32.112,0.72,31.536,0.72,31.536,0.576,31.248,0.576,31.248,0.432,30.96,0.432,30.96,0.288,30.672,0.288,30.672,0.144,30.384,0.144,30.384,0"  stroke="none" stroke-width="0"/>
     <polygon fill="black" points="0,0.864,0,1.008,32.112,1.008,32.112,0.864"  stroke="none" stroke-width="0"/>
     <polygon fill="black" points="0,0.864,0,1.008,32.112,1.008,32.112,0.864"  stroke="none" stroke-width="0"/>
     <polygon fill="black" points="0,0.864,0,1.008,32.112,1.008,32.112,0.864"  stroke="none" stroke-width="0"/>
     <polygon fill="black" points="0,0.864,0,1.008,32.112,1.008,32.112,0.864"  stroke="none" stroke-width="0"/>
     <polygon fill="black" points="0,0.864,0,1.008,32.112,1.008,32.112,0.864"  stroke="none" stroke-width="0"/>
     <polygon fill="black" points="0,1.008,0,1.44,0.144,1.44,0.144,1.728,0.288,1.728,0.288,12.384,19.728,12.384,19.728,12.528,20.304,12.528,20.304,12.672,20.736,12.672,20.736,12.816,21.024,12.816,21.024,12.96,21.312,12.96,21.312,13.104,21.456,13.104,21.456,13.248,23.184,13.248,23.184,13.104,23.472,13.104,23.472,12.96,23.76,12.96,23.76,12.816,24.048,12.816,24.048,12.672,24.48,12.672,24.48,12.528,25.056,12.528,25.056,12.384,25.344,12.384,25.344,12.24,25.488,12.24,25.488,11.952,25.632,11.952,25.632,11.808,25.776,11.808,25.776,11.52,25.92,11.52,25.92,11.376,26.064,11.376,26.064,11.088,26.208,11.088,26.208,10.944,26.352,10.944,26.352,10.656,26.496,10.656,26.496,10.512,26.64,10.512,26.64,10.224,26.784,10.224,26.784,10.08,26.928,10.08,26.928,9.792,27.072,9.792,27.072,9.648,27.216,9.648,27.216,9.36,27.36,9.36,27.36,9.216,27.504,9.216,27.504,8.928,27.648,8.928,27.648,8.784,27.792,8.784,27.792,8.496,27.936,8.496,27.936,8.352,28.08,8.352,28.08,8.064,28.224,8.064,28.224,7.92,28.368,7.92,28.368,7.632,28.512,7.632,28.512,7.488,28.656,7.488,28.656,7.2,28.8,7.2,28.8,7.056,28.944,7.056,28.944,6.768,29.088,6.768,29.088,6.624,29.232,6.624,29.232,6.336,29.376,6.336,29.376,6.192,29.52,6.192,29.52,5.904,29.664,5.904,29.664,5.76,29.808,5.76,29.808,5.472,29.952,5.472,29.952,5.328,30.096,5.328,30.096,5.04,30.24,5.04,30.24,4.896,30.384,4.896,30.384,4.608,30.528,4.608,30.528,4.464,30.672,4.464,30.672,4.176,30.816,4.176,30.816,4.032,30.96,4.032,30.96,3.744,31.104,3.744,31.104,3.6,31.248,3.6,31.248,3.312,31.392,3.312,31.392,3.168,31.536,3.168,31.536,2.88,31.68,2.88,31.68,2.736,31.824,2.736,31.824,2.448,31.968,2.448,31.968,2.304,32.112,2.304,32.112,1.008"  stroke="none" stroke-width="0"/>
     <polygon fill="black" points="0.288,12.384,0.288,13.104,1.872,13.104,1.872,12.96,2.16,12.96,2.16,12.816,2.448,12.816,2.448,12.672,2.88,12.672,2.88,12.528,3.456,12.528,3.456,12.384"  stroke="none" stroke-width="0"/>
     <polygon fill="black" points="5.328,12.384,5.328,12.528,5.904,12.528,5.904,12.672,6.336,12.672,6.336,12.816,6.624,12.816,6.624,12.96,6.912,12.96,6.912,13.104,7.056,13.104,7.056,13.248,8.784,13.248,8.784,13.104,9.072,13.104,9.072,12.96,9.36,12.96,9.36,12.816,9.648,12.816,9.648,12.672,10.08,12.672,10.08,12.528,10.656,12.528,10.656,12.384"  stroke="none" stroke-width="0"/>
     <polygon fill="black" points="12.528,12.384,12.528,12.528,13.104,12.528,13.104,12.672,13.536,12.672,13.536,12.816,13.824,12.816,13.824,12.96,14.112,12.96,14.112,13.104,14.256,13.104,14.256,13.248,15.984,13.248,15.984,13.104,16.272,13.104,16.272,12.96,16.56,12.96,16.56,12.816,16.848,12.816,16.848,12.672,17.28,12.672,17.28,12.528,17.856,12.528,17.856,12.384"  stroke="none" stroke-width="0"/>
     <g  id="connector0pad">
      <circle fill="black" cx="5.4945"  cy="5.4954" stroke="none" r="2.7" stroke-width="0"/>
     </g>
    </g>
   </g>
  </g>
  <g partID="447860">
   <g transform="translate(3.168,57.312)">
    <g  id="groundplane">
     <polygon fill="black" points="5.76,0,5.76,0.144,5.616,0.144,5.616,0.288,5.328,0.288,5.328,0.432,5.04,0.432,5.04,0.576,4.608,0.576,4.608,0.72,3.888,0.72,3.888,0.864,7.344,0.864,7.344,0"  stroke="none" stroke-width="0"/>
     <polygon fill="black" points="0,0.432,0,0.864,2.592,0.864,2.592,0.72,1.728,0.72,1.728,0.576,1.44,0.576,1.44,0.432"  stroke="none" stroke-width="0"/>
     <polygon fill="black" points="0,0.864,0,1.008,7.344,1.008,7.344,0.864"  stroke="none" stroke-width="0"/>
     <polygon fill="black" points="0,0.864,0,1.008,7.344,1.008,7.344,0.864"  stroke="none" stroke-width="0"/>
     <polygon fill="black" points="0,1.008,0,38.16,4.176,38.16,4.176,38.304,5.76,38.304,5.76,38.16,7.344,38.16,7.344,1.008"  stroke="none" stroke-width="0"/>
     <polygon fill="black" points="0,38.16,0,38.448,1.728,38.448,1.728,38.304,2.304,38.304,2.304,38.16"  stroke="none" stroke-width="0"/>
     <g  id="connector0pad">
      <circle fill="black" cx="3.597"  cy="6.57" stroke="none" r="2.7" stroke-width="0"/>
     </g>
    </g>
   </g>
  </g>
  <g partID="447870">
   <g transform="translate(103.392,51.12)">
    <g  id="groundplane">
     <polygon fill="black" points="23.04,0,23.04,1.008,23.184,1.008,23.184,3.312,23.04,3.312,23.04,3.888,22.896,3.888,22.896,4.176,22.752,4.176,22.752,4.464,22.608,4.464,22.608,4.752,22.464,4.752,22.464,4.896,22.32,4.896,22.32,6.336,22.464,6.336,22.464,6.624,22.608,6.624,22.608,6.768,22.752,6.768,22.752,7.056,22.896,7.056,22.896,7.344,23.04,7.344,23.04,7.776,23.184,7.776,23.184,8.352,23.328,8.352,23.328,10.368,23.184,10.368,23.184,10.944,23.04,10.944,23.04,11.376,22.896,11.376,22.896,11.664,22.752,11.664,22.752,11.952,22.608,11.952,22.608,12.096,22.464,12.096,22.464,12.384,22.32,12.384,22.32,12.528,22.176,12.528,22.176,12.672,22.032,12.672,22.032,12.816,21.888,12.816,21.888,12.96,21.744,12.96,21.744,13.104,21.6,13.104,21.6,13.248,21.456,13.248,21.456,13.392,21.312,13.392,21.312,13.536,21.168,13.536,21.168,13.68,20.88,13.68,20.88,13.824,20.592,13.824,20.592,13.968,20.448,13.968,20.448,14.112,20.016,14.112,20.016,14.256,19.728,14.256,19.728,14.4,18.864,14.4,18.864,14.544,25.776,14.544,25.776,0"  stroke="none" stroke-width="0"/>
     <polygon fill="black" points="6.48,13.68,6.48,13.824,6.192,13.824,6.192,13.968,6.048,13.968,6.048,14.112,5.616,14.112,5.616,14.256,5.328,14.256,5.328,14.4,4.464,14.4,4.464,14.544,10.224,14.544,10.224,14.4,9.504,14.4,9.504,14.256,9.072,14.256,9.072,14.112,8.784,14.112,8.784,13.968,8.496,13.968,8.496,13.824,8.208,13.824,8.208,13.68"  stroke="none" stroke-width="0"/>
     <polygon fill="black" points="13.68,13.68,13.68,13.824,13.392,13.824,13.392,13.968,13.248,13.968,13.248,14.112,12.816,14.112,12.816,14.256,12.528,14.256,12.528,14.4,11.664,14.4,11.664,14.544,17.424,14.544,17.424,14.4,16.704,14.4,16.704,14.256,16.272,14.256,16.272,14.112,15.984,14.112,15.984,13.968,15.696,13.968,15.696,13.824,15.408,13.824,15.408,13.68"  stroke="none" stroke-width="0"/>
     <polygon fill="black" points="0,13.968,0,14.544,3.024,14.544,3.024,14.4,2.304,14.4,2.304,14.256,1.872,14.256,1.872,14.112,1.584,14.112,1.584,13.968"  stroke="none" stroke-width="0"/>
     <polygon fill="black" points="0,14.544,0,14.688,25.776,14.688,25.776,14.544"  stroke="none" stroke-width="0"/>
     <polygon fill="black" points="0,14.544,0,14.688,25.776,14.688,25.776,14.544"  stroke="none" stroke-width="0"/>
     <polygon fill="black" points="0,14.544,0,14.688,25.776,14.688,25.776,14.544"  stroke="none" stroke-width="0"/>
     <polygon fill="black" points="0,14.544,0,14.688,25.776,14.688,25.776,14.544"  stroke="none" stroke-width="0"/>
     <polygon fill="black" points="0.288,14.688,0.288,14.832,0.576,14.832,0.576,14.976,0.864,14.976,0.864,15.12,1.008,15.12,1.008,15.264,1.296,15.264,1.296,15.408,1.584,15.408,1.584,15.552,1.872,15.552,1.872,15.696,2.16,15.696,2.16,15.84,2.448,15.84,2.448,15.984,2.736,15.984,2.736,16.128,3.024,16.128,3.024,16.272,3.312,16.272,3.312,16.416,3.6,16.416,3.6,16.56,3.888,16.56,3.888,16.704,4.176,16.704,4.176,16.848,4.464,16.848,4.464,16.992,4.752,16.992,4.752,17.136,5.04,17.136,5.04,17.28,5.328,17.28,5.328,17.424,5.616,17.424,5.616,17.568,5.904,17.568,5.904,17.712,6.192,17.712,6.192,17.856,6.48,17.856,6.48,18,6.768,18,6.768,18.144,6.912,18.144,6.912,18.288,7.2,18.288,7.2,18.432,7.488,18.432,7.488,18.576,7.776,18.576,7.776,18.72,8.064,18.72,8.064,18.864,11.376,18.864,11.376,19.008,11.952,19.008,11.952,19.152,12.384,19.152,12.384,19.296,12.672,19.296,12.672,19.44,12.96,19.44,12.96,19.584,13.104,19.584,13.104,19.728,13.392,19.728,13.392,19.872,13.536,19.872,13.536,20.016,13.68,20.016,13.68,20.16,13.824,20.16,13.824,20.304,13.968,20.304,13.968,20.448,14.112,20.448,14.112,20.592,14.256,20.592,14.256,20.736,14.4,20.736,14.4,20.88,14.544,20.88,14.544,21.168,14.688,21.168,14.688,21.312,14.832,21.312,14.832,21.6,14.976,21.6,14.976,21.888,15.12,21.888,15.12,22.32,15.264,22.32,15.264,23.04,15.408,23.04,15.408,24.48,15.264,24.48,15.264,25.2,27.936,25.2,27.936,25.056,27.36,25.056,27.36,24.912,27.072,24.912,27.072,24.768,26.784,24.768,26.784,24.624,26.496,24.624,26.496,24.48,26.208,24.48,26.208,24.336,26.064,24.336,26.064,24.192,25.92,24.192,25.92,24.048,25.632,24.048,25.632,23.904,25.488,23.904,25.488,23.76,25.344,23.76,25.344,23.616,25.2,23.616,25.2,23.328,25.056,23.328,25.056,23.184,24.912,23.184,24.912,23.04,24.768,23.04,24.768,22.752,24.624,22.752,24.624,22.608,24.48,22.608,24.48,22.32,24.336,22.32,24.336,22.032,24.192,22.032,24.192,21.6,24.048,21.6,24.048,18.72,24.192,18.72,24.192,18.288,24.336,18.288,24.336,18,24.48,18,24.48,17.712,24.624,17.712,24.624,17.568,24.768,17.568,24.768,17.28,24.912,17.28,24.912,17.136,25.056,17.136,25.056,16.992,25.2,16.992,25.2,16.704,25.344,16.704,25.344,16.56,25.488,16.56,25.488,16.416,25.776,16.416,25.776,14.688"  stroke="none" stroke-width="0"/>
     <polygon fill="black" points="31.68,24.336,31.68,24.48,31.536,24.48,31.536,24.624,31.248,24.624,31.248,24.768,30.96,24.768,30.96,24.912,30.528,24.912,30.528,25.056,29.952,25.056,29.952,25.2,33.12,25.2,33.12,24.336"  stroke="none" stroke-width="0"/>
     <polygon fill="black" points="15.12,25.2,15.12,25.344,33.12,25.344,33.12,25.2"  stroke="none" stroke-width="0"/>
     <polygon fill="black" points="15.12,25.2,15.12,25.344,33.12,25.344,33.12,25.2"  stroke="none" stroke-width="0"/>
     <polygon fill="black" points="15.12,25.344,15.12,25.632,14.976,25.632,14.976,25.92,14.832,25.92,14.832,26.208,14.688,26.208,14.688,26.352,14.544,26.352,14.544,26.64,14.4,26.64,14.4,26.784,14.256,26.784,14.256,26.928,14.112,26.928,14.112,29.808,14.256,29.808,14.256,31.968,14.112,31.968,14.112,32.4,13.968,32.4,13.968,32.544,15.408,32.544,15.408,32.4,15.552,32.4,15.552,32.256,15.696,32.256,15.696,32.112,15.84,32.112,15.84,31.968,15.984,31.968,15.984,31.824,16.128,31.824,16.128,31.68,16.416,31.68,16.416,31.536,16.704,31.536,16.704,31.392,17.568,31.392,17.568,31.248,33.12,31.248,33.12,25.344"  stroke="none" stroke-width="0"/>
     <g  id="connector0pad">
      <circle fill="black" cx="18.342"  cy="19.0215" stroke="none" r="2.7" stroke-width="0"/>
     </g>
    </g>
   </g>
  </g>
  <g partID="447930">
   <g transform="translate(49.104,84.096)">
    <g  id="groundplane">
     <g  id="connector0pad">
      <polygon fill="black" points="67.968,0,67.968,0.144,67.824,0.144,67.824,0.432,67.536,0.432,67.536,0.576,67.392,0.576,67.392,0.72,67.248,0.72,67.248,0.864,66.96,0.864,66.96,1.008,66.528,1.008,66.528,1.152,40.032,1.152,40.032,1.44,39.888,1.44,39.888,1.584,39.6,1.584,39.6,1.728,39.456,1.728,39.456,1.872,39.312,1.872,39.312,2.016,39.168,2.016,39.168,2.16,38.88,2.16,38.88,2.304,38.592,2.304,38.592,2.448,38.304,2.448,38.304,2.592,37.872,2.592,37.872,2.736,37.152,2.736,37.152,2.88,69.264,2.88,69.264,0.288,69.408,0.288,69.408,0"  stroke="none" stroke-width="0"/>
      <polygon fill="black" points="7.488,0.144,7.488,1.152,13.68,1.152,13.68,1.008,12.96,1.008,12.96,0.864,12.096,0.864,12.096,0.72,11.376,0.72,11.376,0.576,10.656,0.576,10.656,0.432,9.936,0.432,9.936,0.288,9.216,0.288,9.216,0.144"  stroke="none" stroke-width="0"/>
      <polygon fill="black" points="23.76,0.864,23.76,1.008,23.328,1.008,23.328,1.152,25.488,1.152,25.488,1.008,25.344,1.008,25.344,0.864"  stroke="none" stroke-width="0"/>
      <polygon fill="black" points="7.488,1.152,7.488,1.296,25.632,1.296,25.632,1.152"  stroke="none" stroke-width="0"/>
      <polygon fill="black" points="7.488,1.152,7.488,1.296,25.632,1.296,25.632,1.152"  stroke="none" stroke-width="0"/>
      <polygon fill="black" points="7.488,1.296,7.488,2.016,7.344,2.016,7.344,2.736,7.2,2.736,7.2,2.88,28.656,2.88,28.656,2.736,27.792,2.736,27.792,2.592,27.504,2.592,27.504,2.448,27.072,2.448,27.072,2.304,26.928,2.304,26.928,2.16,26.64,2.16,26.64,2.016,26.496,2.016,26.496,1.872,26.208,1.872,26.208,1.728,26.064,1.728,26.064,1.584,25.92,1.584,25.92,1.44,25.776,1.44,25.776,1.296"  stroke="none" stroke-width="0"/>
      <polygon fill="black" points="32.112,1.872,32.112,2.016,31.824,2.016,31.824,2.16,31.68,2.16,31.68,2.304,31.392,2.304,31.392,2.448,31.104,2.448,31.104,2.592,30.672,2.592,30.672,2.736,29.952,2.736,29.952,2.88,35.856,2.88,35.856,2.736,34.992,2.736,34.992,2.592,34.704,2.592,34.704,2.448,34.416,2.448,34.416,2.304,34.128,2.304,34.128,2.16,33.84,2.16,33.84,2.016,33.696,2.016,33.696,1.872"  stroke="none" stroke-width="0"/>
      <polygon fill="black" points="7.2,2.88,7.2,3.024,69.264,3.024,69.264,2.88"  stroke="none" stroke-width="0"/>
      <polygon fill="black" points="7.2,2.88,7.2,3.024,69.264,3.024,69.264,2.88"  stroke="none" stroke-width="0"/>
      <polygon fill="black" points="7.2,2.88,7.2,3.024,69.264,3.024,69.264,2.88"  stroke="none" stroke-width="0"/>
      <polygon fill="black" points="7.056,3.024,7.056,3.312,6.912,3.312,6.912,3.6,6.768,3.6,6.768,3.888,6.624,3.888,6.624,4.032,6.48,4.032,6.48,4.176,6.336,4.176,6.336,4.464,6.192,4.464,6.192,4.608,6.048,4.608,6.048,4.752,5.904,4.752,5.904,4.896,5.76,4.896,5.76,5.04,5.616,5.04,5.616,5.184,5.328,5.184,5.328,5.328,5.184,5.328,5.184,5.472,4.896,5.472,4.896,5.616,4.752,5.616,4.752,5.76,4.464,5.76,4.464,5.904,4.032,5.904,4.032,6.048,3.456,6.048,3.456,6.192,69.264,6.192,69.264,3.024"  stroke="none" stroke-width="0"/>
      <polygon fill="black" points="0,6.048,0,6.192,1.44,6.192,1.44,6.048"  stroke="none" stroke-width="0"/>
      <polygon fill="black" points="0,6.192,0,6.336,69.264,6.336,69.264,6.192"  stroke="none" stroke-width="0"/>
      <polygon fill="black" points="0,6.192,0,6.336,69.264,6.336,69.264,6.192"  stroke="none" stroke-width="0"/>
      <polygon fill="black" points="0,6.336,0,9.216,69.264,9.216,69.264,6.336"  stroke="none" stroke-width="0"/>
     </g>
    </g>
   </g>
  </g>
  <g partID="447950">
   <g transform="translate(51.552,8.712)">
    <g  id="groundplane">
     <polygon fill="black" points="0,0,4.176,0,4.176,2.664,0,2.664"  stroke="none" stroke-width="0"/>
    </g>
   </g>
  </g>
  <g partID="447960">
   <g transform="translate(-0.288,8.64)">
    <g  id="groundplane">
     <polygon fill="black" points="0,0,5.472,0,5.472,2.808,0,2.808"  stroke="none" stroke-width="0"/>
    </g>
   </g>
  </g>
  <g partID="447970">
   <g transform="translate(7.344,8.64)">
    <g  id="groundplane">
     <polygon fill="black" points="0,0,4.176,0,4.176,2.808,0,2.808"  stroke="none" stroke-width="0"/>
    </g>
   </g>
  </g>
  <g partID="447980">
   <g transform="translate(86.256,8.784)">
    <g  id="groundplane">
     <polygon fill="black" points="0,0,4.176,0,4.176,2.52,0,2.52"  stroke="none" stroke-width="0"/>
    </g>
   </g>
  </g>
  <g partID="447990">
   <g transform="translate(69.624,32.4)">
    <g  id="groundplane">
     <polygon fill="black" points="0,0,2.664,0,2.664,4.32,0,4.32"  stroke="none" stroke-width="0"/>
    </g>
   </g>
  </g>
  <g partID="448000">
   <g transform="translate(145.224,46.944)">
    <g  id="groundplane">
     <polygon fill="black" points="0,0,2.664,0,2.664,4.176,0,4.176"  stroke="none" stroke-width="0"/>
    </g>
   </g>
  </g>
  <g partID="448010">
   <g transform="translate(150.912,98.784)">
    <g  id="groundplane">
     <polygon fill="black" points="0,0,4.896,0,4.896,2.232,0,2.232"  stroke="none" stroke-width="0"/>
    </g>
   </g>
  </g>
  <g partID="448020">
   <g transform="translate(46.224,102.168)">
    <g  id="groundplane">
     <polygon fill="black" points="0,0,4.176,0,4.176,2.664,0,2.664"  stroke="none" stroke-width="0"/>
    </g>
   </g>
  </g>
  <g partID="448030">
   <g transform="translate(52.272,102.168)">
    <g  id="groundplane">
     <polygon fill="black" points="0,0,4.32,0,4.32,2.664,0,2.664"  stroke="none" stroke-width="0"/>
    </g>
   </g>
  </g>
  <g partID="448040">
   <g transform="translate(5.184,95.184)">
    <g  id="groundplane">
     <polygon fill="black" points="0,0,2.232,0,2.232,3.888,0,3.888"  stroke="none" stroke-width="0"/>
    </g>
   </g>
  </g>
  <g partID="448050">
   <g transform="translate(-0.288,98.784)">
    <g  id="groundplane">
     <polygon fill="black" points="0,0,5.76,0,5.76,2.232,0,2.232"  stroke="none" stroke-width="0"/>
    </g>
   </g>
  </g>
  <g partID="12080">
   <g transform="translate(23.6584,57.608)">
    <g transform="matrix(0,-1,1,0,0,0)">
     <g  id="copper0" stroke-width="0">
      <rect width="3.96" x="2.34" y="2.34" fill="none"  height="3.96" stroke="black" stroke-width="1.44"/>
      <circle fill="none" cx="4.32"  cy="4.32" stroke="black" id="connector0pin" r="1.98" stroke-width="1.44"/>
      <circle fill="none" cx="25.92"  cy="4.32" stroke="black" id="connector27pin" r="1.98" stroke-width="1.44"/>
      <circle fill="none" cx="4.32"  cy="11.52" stroke="black" id="connector1pin" r="1.98" stroke-width="1.44"/>
      <circle fill="none" cx="25.92"  cy="11.52" stroke="black" id="connector26pin" r="1.98" stroke-width="1.44"/>
      <circle fill="none" cx="4.32"  cy="18.72" stroke="black" id="connector2pin" r="1.98" stroke-width="1.44"/>
      <circle fill="none" cx="25.92"  cy="18.72" stroke="black" id="connector25pin" r="1.98" stroke-width="1.44"/>
      <circle fill="none" cx="4.32"  cy="25.92" stroke="black" id="connector3pin" r="1.98" stroke-width="1.44"/>
      <circle fill="none" cx="25.92"  cy="25.92" stroke="black" id="connector24pin" r="1.98" stroke-width="1.44"/>
      <circle fill="none" cx="4.32"  cy="33.12" stroke="black" id="connector4pin" r="1.98" stroke-width="1.44"/>
      <circle fill="none" cx="25.92"  cy="33.12" stroke="black" id="connector23pin" r="1.98" stroke-width="1.44"/>
      <circle fill="none" cx="4.32"  cy="40.32" stroke="black" id="connector5pin" r="1.98" stroke-width="1.44"/>
      <circle fill="none" cx="25.92"  cy="40.32" stroke="black" id="connector22pin" r="1.98" stroke-width="1.44"/>
      <circle fill="none" cx="4.32"  cy="47.52" stroke="black" id="connector6pin" r="1.98" stroke-width="1.44"/>
      <circle fill="none" cx="25.92"  cy="47.52" stroke="black" id="connector21pin" r="1.98" stroke-width="1.44"/>
      <circle fill="none" cx="4.32"  cy="54.72" stroke="black" id="connector7pin" r="1.98" stroke-width="1.44"/>
      <circle fill="none" cx="25.92"  cy="54.72" stroke="black" id="connector20pin" r="1.98" stroke-width="1.44"/>
      <circle fill="none" cx="4.32"  cy="61.92" stroke="black" id="connector8pin" r="1.98" stroke-width="1.44"/>
      <circle fill="none" cx="25.92"  cy="61.92" stroke="black" id="connector19pin" r="1.98" stroke-width="1.44"/>
      <circle fill="none" cx="4.32"  cy="69.12" stroke="black" id="connector9pin" r="1.98" stroke-width="1.44"/>
      <circle fill="none" cx="25.92"  cy="69.12" stroke="black" id="connector18pin" r="1.98" stroke-width="1.44"/>
      <circle fill="none" cx="4.32"  cy="76.32" stroke="black" id="connector10pin" r="1.98" stroke-width="1.44"/>
      <circle fill="none" cx="25.92"  cy="76.32" stroke="black" id="connector17pin" r="1.98" stroke-width="1.44"/>
      <circle fill="none" cx="4.32"  cy="83.52" stroke="black" id="connector11pin" r="1.98" stroke-width="1.44"/>
      <circle fill="none" cx="25.92"  cy="83.52" stroke="black" id="connector16pin" r="1.98" stroke-width="1.44"/>
      <circle fill="none" cx="4.32"  cy="90.72" stroke="black" id="connector12pin" r="1.98" stroke-width="1.44"/>
      <circle fill="none" cx="25.92"  cy="90.72" stroke="black" id="connector15pin" r="1.98" stroke-width="1.44"/>
      <circle fill="none" cx="4.32"  cy="97.92" stroke="black" id="connector13pin" r="1.98" stroke-width="1.44"/>
      <circle fill="none" cx="25.92"  cy="97.92" stroke="black" id="connector14pin" r="1.98" stroke-width="1.44"/>
     </g>
    </g>
   </g>
  </g>
  <g partID="12690">
   <g transform="translate(126.618,19.448)">
    <g transform="matrix(0,1,-1,0,0,0)">
     <g  id="copper0">
      <circle fill="none" cx="5.04"  cy="5.04" stroke="black" id="connector0pin" r="2.088" stroke-width="1.44"/>
      <circle fill="none" cx="5.04"  cy="12.24" stroke="black" id="connector1pin" r="2.088" stroke-width="1.44"/>
      <circle fill="none" cx="5.04"  cy="19.44" stroke="black" id="connector2pin" r="2.088" stroke-width="1.44"/>
      <circle fill="none" cx="5.04"  cy="26.64" stroke="black" id="connector3pin" r="2.088" stroke-width="1.44"/>
      <circle fill="none" cx="5.04"  cy="33.84" stroke="black" id="connector4pin" r="2.088" stroke-width="1.44"/>
      <circle fill="none" cx="5.04"  cy="41.04" stroke="black" id="connector5pin" r="2.088" stroke-width="1.44"/>
      <circle fill="none" cx="5.04"  cy="48.24" stroke="black" id="connector6pin" r="2.088" stroke-width="1.44"/>
      <circle fill="none" cx="5.04"  cy="55.44" stroke="black" id="connector7pin" r="2.088" stroke-width="1.44"/>
      <circle fill="none" cx="5.04"  cy="62.64" stroke="black" id="connector8pin" r="2.088" stroke-width="1.44"/>
      <circle fill="none" cx="5.04"  cy="69.84" stroke="black" id="connector9pin" r="2.088" stroke-width="1.44"/>
      <circle fill="none" cx="5.04"  cy="77.04" stroke="black" id="connector10pin" r="2.088" stroke-width="1.44"/>
      <circle fill="none" cx="5.04"  cy="84.24" stroke="black" id="connector11pin" r="2.088" stroke-width="1.44"/>
      <circle fill="none" cx="5.04"  cy="91.44" stroke="black" id="connector12pin" r="2.088" stroke-width="1.44"/>
      <circle fill="none" cx="5.04"  cy="98.64" stroke="black" id="connector13pin" r="2.088" stroke-width="1.44"/>
     </g>
    </g>
   </g>
  </g>
  <g partID="12160">
   <g transform="translate(126.618,55.448)">
    <g transform="matrix(0,1,-1,0,0,0)">
     <g  id="copper0">
      <circle fill="none" cx="5.04"  cy="5.04" stroke="black" id="connector0pin" r="2.088" stroke-width="1.44"/>
      <circle fill="none" cx="5.04"  cy="12.24" stroke="black" id="connector1pin" r="2.088" stroke-width="1.44"/>
      <circle fill="none" cx="5.04"  cy="19.44" stroke="black" id="connector2pin" r="2.088" stroke-width="1.44"/>
      <circle fill="none" cx="5.04"  cy="26.64" stroke="black" id="connector3pin" r="2.088" stroke-width="1.44"/>
      <circle fill="none" cx="5.04"  cy="33.84" stroke="black" id="connector4pin" r="2.088" stroke-width="1.44"/>
      <circle fill="none" cx="5.04"  cy="41.04" stroke="black" id="connector5pin" r="2.088" stroke-width="1.44"/>
      <circle fill="none" cx="5.04"  cy="48.24" stroke="black" id="connector6pin" r="2.088" stroke-width="1.44"/>
      <circle fill="none" cx="5.04"  cy="55.44" stroke="black" id="connector7pin" r="2.088" stroke-width="1.44"/>
      <circle fill="none" cx="5.04"  cy="62.64" stroke="black" id="connector8pin" r="2.088" stroke-width="1.44"/>
      <circle fill="none" cx="5.04"  cy="69.84" stroke="black" id="connector9pin" r="2.088" stroke-width="1.44"/>
      <circle fill="none" cx="5.04"  cy="77.04" stroke="black" id="connector10pin" r="2.088" stroke-width="1.44"/>
      <circle fill="none" cx="5.04"  cy="84.24" stroke="black" id="connector11pin" r="2.088" stroke-width="1.44"/>
      <circle fill="none" cx="5.04"  cy="91.44" stroke="black" id="connector12pin" r="2.088" stroke-width="1.44"/>
      <circle fill="none" cx="5.04"  cy="98.64" stroke="black" id="connector13pin" r="2.088" stroke-width="1.44"/>
     </g>
    </g>
   </g>
  </g>
  <g partID="22200">
   <g transform="translate(52.8184,2.528)">
    <g  id="copper0">
     <rect width="3.96" x="1.98" y="5.58" fill="none"  height="3.96" stroke="black" id="rect11" stroke-width="1.44"/>
     <circle fill="none" cx="3.96"  cy="7.56" stroke="black" r="1.98" id="connector0pin" stroke-width="1.44"/>
     <circle fill="none" cx="11.16"  cy="7.56" stroke="black" r="1.98" id="connector1pin" stroke-width="1.44"/>
    </g>
   </g>
  </g>
  <g partID="22230">
   <g transform="translate(68.2984,14.408)">
    <g transform="matrix(1,0,0,1,0,0)">
     <g  id="copper0">
      <g  id="copper1">
       <circle fill="none" cx="2.88"  cy="2.88" stroke="black" id="connector0pin" r="1.8" stroke-width="1.44"/>
       <circle fill="none" cx="10.0933"  cy="2.88" stroke="black" id="connector1pin" r="1.8" stroke-width="1.44"/>
      </g>
     </g>
    </g>
   </g>
  </g>
  <g partID="22260">
   <g transform="translate(88.4584,7.208)">
    <g transform="matrix(0,1,-1,0,0,0)">
     <g  id="copper0">
      <g  id="copper1">
       <circle fill="none" cx="2.88"  cy="2.88" stroke="black" id="connector0pin" r="1.8" stroke-width="1.44"/>
       <circle fill="none" cx="10.0933"  cy="2.88" stroke="black" id="connector1pin" r="1.8" stroke-width="1.44"/>
      </g>
     </g>
    </g>
   </g>
  </g>
  <g partID="22290">
   <g transform="translate(32.4784,64.592)">
    <g  id="copper0">
     <g  id="copper1">
      <rect width="3.96" x="0.72" y="1.116" fill="none"  height="3.96" stroke="black" stroke-width="1.44"/>
      <circle fill="none" cx="2.7"  cy="3.096" stroke="black" r="1.98" id="connector0pin" stroke-width="1.44"/>
      <circle fill="none" cx="31.5"  cy="3.096" stroke="black" r="1.98" id="connector1pin" stroke-width="1.44"/>
     </g>
    </g>
   </g>
  </g>
  <g partID="22320">
   <g transform="translate(63.4024,78.488)">
    <g transform="matrix(-1,0,0,-1,0,0)">
     <g  id="copper0">
      <rect width="4.464" x="0.72" y="1.368" fill="none"  height="4.464" stroke="black" stroke-width="1.44"/>
      <circle fill="none" cx="3.024"  cy="3.6" stroke="black" id="connector0pin" r="2.232" stroke-width="1.44"/>
      <circle fill="none" cx="24.48"  cy="3.6" stroke="black" id="connector1pin" r="2.232" stroke-width="1.44"/>
     </g>
    </g>
   </g>
  </g>
  <g partID="22350">
   <g transform="translate(68.2984,64.808)">
    <g  id="copper0">
     <g  id="copper1">
      <circle fill="none" cx="2.88"  cy="2.88" stroke="black" id="connector0pin" r="1.8" stroke-width="1.44"/>
      <circle fill="none" cx="10.0933"  cy="2.88" stroke="black" id="connector1pin" r="1.8" stroke-width="1.44"/>
     </g>
    </g>
   </g>
  </g>
  <g partID="22380">
   <g transform="translate(75.4984,72.008)">
    <g  id="copper0">
     <g  id="copper1">
      <circle fill="none" cx="2.88"  cy="2.88" stroke="black" id="connector0pin" r="1.8" stroke-width="1.44"/>
      <circle fill="none" cx="10.0933"  cy="2.88" stroke="black" id="connector1pin" r="1.8" stroke-width="1.44"/>
     </g>
    </g>
   </g>
  </g>
  <g partID="22410">
   <g transform="translate(75.4984,79.208)">
    <g  id="copper0">
     <g  id="copper1">
      <circle fill="none" cx="2.88"  cy="2.88" stroke="black" id="connector0pin" r="1.8" stroke-width="1.44"/>
      <circle fill="none" cx="10.0933"  cy="2.88" stroke="black" id="connector1pin" r="1.8" stroke-width="1.44"/>
     </g>
    </g>
   </g>
  </g>
  <g partID="22440">
   <g transform="translate(91.3327,67.8014)">
    <g  id="copper0">
     <g  id="copper1">
      <circle fill="none" cx="22.5479"  cy="7.08448" stroke="black" id="connector1pin" r="1.84465" stroke-width="1.41732"/>
      <circle fill="none" cx="8.64567"  cy="7.08661" stroke="black" id="connector0pin" r="1.84252" stroke-width="1.41732"/>
     </g>
    </g>
   </g>
  </g>
  <g partID="43430">
   <g transform="translate(11.4184,43.928)">
    <g transform="matrix(-1,0,0,-1,0,0)">
     <g  id="copper0">
      <circle fill="none" cx="5.04"  cy="5.04" stroke="black" id="connector0pin" r="2.088" stroke-width="1.44"/>
      <circle fill="none" cx="5.04"  cy="12.24" stroke="black" id="connector1pin" r="2.088" stroke-width="1.44"/>
      <circle fill="none" cx="5.04"  cy="19.44" stroke="black" id="connector2pin" r="2.088" stroke-width="1.44"/>
      <circle fill="none" cx="5.04"  cy="26.64" stroke="black" id="connector3pin" r="2.088" stroke-width="1.44"/>
      <circle fill="none" cx="5.04"  cy="33.84" stroke="black" id="connector4pin" r="2.088" stroke-width="1.44"/>
     </g>
    </g>
   </g>
  </g>
  <g partID="432810">
   <g transform="translate(3.4984,50.408)">
    <g  id="copper0">
     <g  id="copper1">
      <circle fill="none" cx="2.88"  cy="2.88" stroke="black" id="connector0pin" r="1.8" stroke-width="1.44"/>
      <circle fill="none" cx="17.28"  cy="2.88" stroke="black" id="connector1pin" r="1.8" stroke-width="1.44"/>
     </g>
    </g>
   </g>
  </g>
  <g partID="201470">
   <g transform="translate(35.9319,106.109)">
    <g transform="matrix(0,-1,1,0,0,0)">
     <g  id="copper0">
      <circle fill="none" cx="20.8462"  cy="15.6024" stroke="black" id="connector0pad" r="1.98" stroke-width="1.44"/>
      <circle fill="none" cx="2.42064"  cy="15.6024" stroke="black" id="connector1pad" r="1.98" stroke-width="1.44"/>
      <circle fill="none" cx="20.8462"  cy="2.84616" stroke="black" id="connector2pad" r="1.98" stroke-width="1.44"/>
      <circle fill="none" cx="2.42064"  cy="2.84616" stroke="black" id="connector3pad" r="1.98" stroke-width="1.44"/>
     </g>
    </g>
   </g>
  </g>
  <g partID="292650">
   <g transform="translate(130.787,17.4608)">
    <g  id="copper0">
     <g  id="copper1">
      <rect width="4.104" x="6.7392" y="12.1752" fill="none"  height="4.104" stroke="black" id="square" r="285" stroke-width="1.224"/>
      <circle fill="none" cx="15.9912"  cy="14.2272" stroke="black" id="connector5pin" r="2.052" stroke-width="1.224"/>
      <circle fill="none" cx="15.9912"  cy="21.4272" stroke="black" id="connector4pin" r="2.052" stroke-width="1.224"/>
      <circle fill="none" cx="15.9912"  cy="28.6272" stroke="black" id="connector3pin" r="2.052" stroke-width="1.224"/>
      <circle fill="none" cx="8.7912"  cy="14.2272" stroke="black" id="connector0pin" r="2.052" stroke-width="1.224"/>
      <circle fill="none" cx="8.7912"  cy="21.4272" stroke="black" id="connector1pin" r="2.052" stroke-width="1.224"/>
      <circle fill="none" cx="8.7912"  cy="28.6272" stroke="black" id="connector2pin" r="2.052" stroke-width="1.224"/>
     </g>
    </g>
   </g>
  </g>
  <g partID="357730">
   <g transform="translate(129.282,102.788)">
    <g transform="matrix(-2.77556e-16,-1,1,-2.77556e-16,0,0)">
     <g  id="copper0">
      <g  id="copper1">
       <rect width="3.96" x="0.72" y="1.116" fill="none"  height="3.96" stroke="black" stroke-width="1.44"/>
       <circle fill="none" cx="2.7"  cy="3.096" stroke="black" r="1.98" id="connector0pin" stroke-width="1.44"/>
       <circle fill="none" cx="31.5"  cy="3.096" stroke="black" r="1.98" id="connector1pin" stroke-width="1.44"/>
      </g>
     </g>
    </g>
   </g>
  </g>
  <g partID="355290">
   <g transform="translate(2.832,108.876)">
    <g transform="matrix(0,-1,1,0,0,0)">
     <g  id="copper0">
      <g  id="copper1">
       <circle fill="none" cx="8.7876"  cy="10.6336" stroke="black" id="connector1pad" r="1.7008" stroke-width="1.13384"/>
       <rect width="3.4016" x="7.0868" y="8.9328" fill="none"  height="3.4016" stroke="black" stroke-width="1.13384"/>
       <circle fill="none" cx="8.7876"  cy="3.5464" stroke="black" id="connector0pad" r="1.7008" stroke-width="1.13384"/>
      </g>
     </g>
    </g>
   </g>
  </g>
  <g partID="356360">
   <g transform="translate(27.4744,68.588)">
    <g transform="matrix(2.77556e-16,1,-1,2.77556e-16,0,0)">
     <g  id="copper0">
      <g  id="copper1">
       <rect width="3.96" x="0.72" y="1.116" fill="none"  height="3.96" stroke="black" stroke-width="1.44"/>
       <circle fill="none" cx="2.7"  cy="3.096" stroke="black" r="1.98" id="connector0pin" stroke-width="1.44"/>
       <circle fill="none" cx="31.5"  cy="3.096" stroke="black" r="1.98" id="connector1pin" stroke-width="1.44"/>
      </g>
     </g>
    </g>
   </g>
  </g>
  <g partID="357900">
   <g transform="translate(153.925,91.3004)">
    <g transform="matrix(0,1,-1,0,0,0)">
     <g  id="copper0">
      <g  id="copper1">
       <circle fill="none" cx="8.7876"  cy="10.6336" stroke="black" id="connector1pad" r="1.7008" stroke-width="1.13384"/>
       <rect width="3.4016" x="7.0868" y="8.9328" fill="none"  height="3.4016" stroke="black" stroke-width="1.13384"/>
       <circle fill="none" cx="8.7876"  cy="3.5464" stroke="black" id="connector0pad" r="1.7008" stroke-width="1.13384"/>
      </g>
     </g>
    </g>
   </g>
  </g>
  <g partID="371960">
   <g transform="translate(124.026,19.736)">
    <g  id="copper0">
     <circle fill="none" cx="4.752"  cy="26.352" stroke="black" r="1.98" id="connector0pad" stroke-width="1.44"/>
     <circle fill="none" cx="4.752"  cy="4.752" stroke="black" r="1.98" id="connector1pad" stroke-width="1.44"/>
    </g>
   </g>
  </g>
  <g partID="396840">
   <g transform="translate(16.0264,26.936)">
    <g  id="copper0">
     <circle fill="none" cx="4.752"  cy="19.152" stroke="black" r="1.98" id="connector0pad" stroke-width="1.44"/>
     <circle fill="none" cx="4.752"  cy="4.752" stroke="black" r="1.98" id="connector1pad" stroke-width="1.44"/>
    </g>
   </g>
  </g>
  <g partID="433270">
   <line stroke="black" stroke-linecap="round" y1="71.2746" x1="22.5884" y2="71.208" stroke-width="1.728" x2="13.6584"/>
  </g>
  <g partID="434120">
   <line stroke="black" stroke-linecap="round" y1="71.208" x1="13.6584" y2="38.888" stroke-width="1.728" x2="13.6584"/>
  </g>
  <g partID="433340">
   <line stroke="black" stroke-linecap="round" y1="38.888" x1="13.6584" y2="32.9847" stroke-width="1.728" x2="7.68949"/>
  </g>
  <g partID="431540">
   <line stroke="black" stroke-linecap="round" y1="76.8038" x1="38.8957" y2="83.4727" stroke-width="1.728" x2="38.8029"/>
  </g>
  <g partID="431130">
   <line stroke="black" stroke-linecap="round" y1="69.289" x1="63.1779" y2="73.1743" stroke-width="1.728" x2="61.2353"/>
  </g>
  <g partID="422840">
   <line stroke="black" stroke-linecap="round" y1="69.388" x1="71.1878" y2="82.088" stroke-width="1.728" x2="71.2584"/>
  </g>
  <g partID="423390">
   <line stroke="black" stroke-linecap="round" y1="82.088" x1="71.2584" y2="82.088" stroke-width="1.728" x2="63.8984"/>
  </g>
  <g partID="425080">
   <line stroke="black" stroke-linecap="round" y1="82.088" x1="63.8984" y2="78.568" stroke-width="1.728" x2="45.9784"/>
  </g>
  <g partID="424530">
   <line stroke="black" stroke-linecap="round" y1="78.568" x1="45.9784" y2="92.968" stroke-width="1.728" x2="45.9784"/>
  </g>
  <g partID="425650">
   <line stroke="black" stroke-linecap="round" y1="92.968" x1="45.9784" y2="92.968" stroke-width="1.728" x2="13.6584"/>
  </g>
  <g partID="423940">
   <line stroke="black" stroke-linecap="round" y1="92.968" x1="13.6584" y2="71.208" stroke-width="1.728" x2="13.6584"/>
  </g>
  <g partID="433410">
   <line stroke="black" stroke-linecap="round" y1="71.208" x1="13.6584" y2="71.2746" stroke-width="1.728" x2="22.5884"/>
  </g>
  <g partID="421150">
   <line stroke="black" stroke-linecap="round" y1="101.738" x1="150.366" y2="110.888" stroke-width="1.728" x2="150.298"/>
  </g>
  <g partID="421420">
   <line stroke="black" stroke-linecap="round" y1="110.888" x1="150.298" y2="110.888" stroke-width="1.728" x2="53.1169"/>
  </g>
  <g partID="446310">
   <line stroke="black" stroke-linecap="round" y1="110.888" x1="53.1169" y2="110.888" stroke-width="1.728" x2="6.2984"/>
  </g>
  <g partID="421690">
   <line stroke="black" stroke-linecap="round" y1="110.888" x1="6.2984" y2="101.738" stroke-width="1.728" x2="6.36618"/>
  </g>
  <g partID="421080">
   <line stroke="black" stroke-linecap="round" y1="100.088" x1="15.116" y2="100.088" stroke-width="1.728" x2="22.5884"/>
  </g>
  <g partID="418190">
   <line stroke="black" stroke-linecap="round" y1="102.094" x1="39.5928" y2="96.488" stroke-width="1.728" x2="42.4584"/>
  </g>
  <g partID="418700">
   <line stroke="black" stroke-linecap="round" y1="96.488" x1="42.4584" y2="96.488" stroke-width="1.728" x2="121.498"/>
  </g>
  <g partID="419210">
   <line stroke="black" stroke-linecap="round" y1="96.488" x1="121.498" y2="85.608" stroke-width="1.728" x2="121.498"/>
  </g>
  <g partID="420230">
   <line stroke="black" stroke-linecap="round" y1="85.608" x1="121.498" y2="85.608" stroke-width="1.728" x2="139.738"/>
  </g>
  <g partID="419720">
   <line stroke="black" stroke-linecap="round" y1="85.608" x1="139.738" y2="47.914" stroke-width="1.728" x2="139.586"/>
  </g>
  <g partID="430960">
   <line stroke="black" stroke-linecap="round" y1="69.282" x1="35.9927" y2="75.048" stroke-width="1.728" x2="38.9384"/>
  </g>
  <g partID="430950">
   <line stroke="black" stroke-linecap="round" y1="75.048" x1="38.9384" y2="76.7945" stroke-width="1.728" x2="39.113"/>
  </g>
  <g partID="397140">
   <line stroke="black" stroke-linecap="round" y1="18.5919" x1="7.6823" y2="30.4223" stroke-width="1.728" x2="19.5127"/>
  </g>
  <g partID="397020">
   <line stroke="black" stroke-linecap="round" y1="46.088" x1="22.5684" y2="46.088" stroke-width="1.728" x2="31.5784"/>
  </g>
  <g partID="397070">
   <line stroke="black" stroke-linecap="round" y1="46.088" x1="31.5784" y2="51.687" stroke-width="1.728" x2="34.3779"/>
  </g>
  <g partID="395400">
   <line stroke="black" stroke-linecap="round" y1="80.388" x1="78.3784" y2="76.588" stroke-width="1.728" x2="78.3784"/>
  </g>
  <g partID="394870">
   <line stroke="black" stroke-linecap="round" y1="62.332" x1="92.7784" y2="64.088" stroke-width="1.728" x2="92.7784"/>
  </g>
  <g partID="398100">
   <line stroke="black" stroke-linecap="round" y1="64.088" x1="92.7784" y2="74.1013" stroke-width="1.728" x2="112.347"/>
  </g>
  <g partID="379730">
   <line stroke="black" stroke-linecap="round" y1="86.3688" x1="52.9415" y2="89.448" stroke-width="1.728" x2="56.8584"/>
  </g>
  <g partID="417740">
   <line stroke="black" stroke-linecap="round" y1="89.448" x1="56.8584" y2="89.448" stroke-width="1.728" x2="78.2984"/>
  </g>
  <g partID="432470">
   <line stroke="black" stroke-linecap="round" y1="89.448" x1="78.2984" y2="83.7879" stroke-width="1.728" x2="78.3599"/>
  </g>
  <g partID="377170">
   <line stroke="black" stroke-linecap="round" y1="32.2654" x1="137.846" y2="35.288" stroke-width="1.728" x2="128.778"/>
  </g>
  <g partID="396710">
   <line stroke="black" stroke-linecap="round" y1="35.288" x1="128.778" y2="38.888" stroke-width="1.728" x2="125.178"/>
  </g>
  <g partID="397990">
   <line stroke="black" stroke-linecap="round" y1="38.888" x1="125.178" y2="38.888" stroke-width="1.728" x2="107.178"/>
  </g>
  <g partID="377390">
   <line stroke="black" stroke-linecap="round" y1="38.888" x1="107.178" y2="32.9537" stroke-width="1.728" x2="101.244"/>
  </g>
  <g partID="374480">
   <line stroke="black" stroke-linecap="round" y1="74.888" x1="87.2917" y2="74.888" stroke-width="1.728" x2="98.2571"/>
  </g>
  <g partID="374350">
   <line stroke="black" stroke-linecap="round" y1="69.388" x1="78.3886" y2="73.188" stroke-width="1.728" x2="78.3815"/>
  </g>
  <g partID="374260">
   <line stroke="black" stroke-linecap="round" y1="73.188" x1="85.5886" y2="67.688" stroke-width="1.728" x2="85.5784"/>
  </g>
  <g partID="374610">
   <line stroke="black" stroke-linecap="round" y1="67.688" x1="85.5784" y2="62.332" stroke-width="1.728" x2="85.5784"/>
  </g>
  <g partID="373940">
   <line stroke="black" stroke-linecap="round" y1="62.332" x1="78.3818" y2="65.988" stroke-width="1.728" x2="78.3886"/>
  </g>
  <g partID="372050">
   <line stroke="black" stroke-linecap="round" y1="33.289" x1="86.3789" y2="46.088" stroke-width="1.728" x2="92.7784"/>
  </g>
  <g partID="372640">
   <line stroke="black" stroke-linecap="round" y1="46.088" x1="92.7784" y2="46.088" stroke-width="1.728" x2="126.988"/>
  </g>
  <g partID="371990">
   <line stroke="black" stroke-linecap="round" y1="24.488" x1="130.568" y2="24.488" stroke-width="1.728" x2="146.778"/>
  </g>
  <g partID="372020">
   <line stroke="black" stroke-linecap="round" y1="24.488" x1="146.778" y2="29.862" stroke-width="1.728" x2="146.778"/>
  </g>
  <g partID="371360">
   <line stroke="black" stroke-linecap="round" y1="22.644" x1="107.178" y2="17.288" stroke-width="1.728" x2="107.178"/>
  </g>
  <g partID="371470">
   <line stroke="black" stroke-linecap="round" y1="17.288" x1="107.178" y2="17.088" stroke-width="1.728" x2="150.778"/>
  </g>
  <g partID="371580">
   <line stroke="black" stroke-linecap="round" y1="17.088" x1="150.778" y2="38.888" stroke-width="1.728" x2="151.178"/>
  </g>
  <g partID="371690">
   <line stroke="black" stroke-linecap="round" y1="38.888" x1="151.178" y2="38.888" stroke-width="1.728" x2="148.604"/>
  </g>
  <g partID="369740">
   <line stroke="black" stroke-linecap="round" y1="46.1387" x1="148.604" y2="46.288" stroke-width="1.728" x2="153.978"/>
  </g>
  <g partID="370280">
   <line stroke="black" stroke-linecap="round" y1="46.288" x1="153.978" y2="2.888" stroke-width="1.728" x2="153.978"/>
  </g>
  <g partID="370010">
   <line stroke="black" stroke-linecap="round" y1="2.888" x1="153.978" y2="2.888" stroke-width="1.728" x2="85.5784"/>
  </g>
  <g partID="411310">
   <line stroke="black" stroke-linecap="round" y1="2.888" x1="85.5784" y2="8.388" stroke-width="1.728" x2="85.5784"/>
  </g>
  <g partID="368230">
   <line stroke="black" stroke-linecap="round" y1="33.1774" x1="84.5855" y2="51.7986" stroke-width="1.728" x2="72.1713"/>
  </g>
  <g partID="358200">
   <line stroke="black" stroke-linecap="round" y1="100.088" x1="141.641" y2="100.088" stroke-width="1.728" x2="134.168"/>
  </g>
  <g partID="357930">
   <line stroke="black" stroke-linecap="round" y1="46.088" x1="148.604" y2="46.088" stroke-width="1.728" x2="150.378"/>
  </g>
  <g partID="397380">
   <line stroke="black" stroke-linecap="round" y1="46.088" x1="150.378" y2="98.4376" stroke-width="1.728" x2="150.378"/>
  </g>
  <g partID="357750">
   <line stroke="black" stroke-linecap="round" y1="38.888" x1="137.752" y2="38.888" stroke-width="1.728" x2="135.978"/>
  </g>
  <g partID="396100">
   <line stroke="black" stroke-linecap="round" y1="38.888" x1="135.978" y2="53.288" stroke-width="1.728" x2="132.378"/>
  </g>
  <g partID="396560">
   <line stroke="black" stroke-linecap="round" y1="53.288" x1="132.378" y2="69.498" stroke-width="1.728" x2="132.378"/>
  </g>
  <g partID="330780">
   <line stroke="black" stroke-linecap="round" y1="82.088" x1="87.2917" y2="82.088" stroke-width="1.728" x2="114.459"/>
  </g>
  <g partID="432680">
   <line stroke="black" stroke-linecap="round" y1="82.088" x1="114.459" y2="76.6027" stroke-width="1.728" x2="114.018"/>
  </g>
  <g partID="329950">
   <line stroke="black" stroke-linecap="round" y1="25.7919" x1="7.6823" y2="38.888" stroke-width="1.728" x2="20.7784"/>
  </g>
  <g partID="368820">
   <line stroke="black" stroke-linecap="round" y1="38.888" x1="20.7784" y2="38.888" stroke-width="1.728" x2="42.3784"/>
  </g>
  <g partID="330150">
   <line stroke="black" stroke-linecap="round" y1="38.888" x1="42.3784" y2="51.498" stroke-width="1.728" x2="42.3784"/>
  </g>
  <g partID="323360">
   <line stroke="black" stroke-linecap="round" y1="32.9537" x1="94.0441" y2="42.488" stroke-width="1.728" x2="103.578"/>
  </g>
  <g partID="323450">
   <line stroke="black" stroke-linecap="round" y1="42.488" x1="103.578" y2="42.488" stroke-width="1.728" x2="125.178"/>
  </g>
  <g partID="397840">
   <line stroke="black" stroke-linecap="round" y1="42.488" x1="125.178" y2="38.888" stroke-width="1.728" x2="132.378"/>
  </g>
  <g partID="397230">
   <line stroke="black" stroke-linecap="round" y1="38.888" x1="132.378" y2="38.888" stroke-width="1.728" x2="137.752"/>
  </g>
  <g partID="285370">
   <line stroke="black" stroke-linecap="round" y1="66.4223" x1="33.9127" y2="61.7919" stroke-width="1.728" x2="29.2823"/>
  </g>
  <g partID="280680">
   <line stroke="black" stroke-linecap="round" y1="8.82607" x1="58.0479" y2="3.0144" stroke-width="1.728" x2="63.8944"/>
  </g>
  <g partID="358400">
   <line stroke="black" stroke-linecap="round" y1="3.0144" x1="63.8944" y2="2.88808" stroke-width="1.728" x2="78.4018"/>
  </g>
  <g partID="281150">
   <line stroke="black" stroke-linecap="round" y1="2.88808" x1="78.4018" y2="8.88397" stroke-width="1.728" x2="84.3783"/>
  </g>
  <g partID="276980">
   <line stroke="black" stroke-linecap="round" y1="10.088" x1="65.7684" y2="10.088" stroke-width="1.728" x2="78.3784"/>
  </g>
  <g partID="358270">
   <line stroke="black" stroke-linecap="round" y1="10.088" x1="78.3784" y2="16.0981" stroke-width="1.728" x2="84.3774"/>
  </g>
  <g partID="162130">
   <line stroke="black" stroke-linecap="round" y1="53.288" x1="26.1884" y2="53.288" stroke-width="1.728" x2="22.4784"/>
  </g>
  <g partID="136950">
   <line stroke="black" stroke-linecap="round" y1="17.2585" x1="69.4787" y2="17.1617" stroke-width="1.728" x2="63.8942"/>
  </g>
  <g partID="358670">
   <line stroke="black" stroke-linecap="round" y1="17.1617" x1="63.8942" y2="11.35" stroke-width="1.728" x2="58.0479"/>
  </g>
  <g partID="126480">
   <line stroke="black" stroke-linecap="round" y1="22.644" x1="85.5784" y2="19.0013" stroke-width="1.728" x2="85.5784"/>
  </g>
  <g partID="121330">
   <line stroke="black" stroke-linecap="round" y1="22.644" x1="78.3818" y2="18.988" stroke-width="1.728" x2="78.3886"/>
  </g>
  <g partID="115960">
   <line stroke="black" stroke-linecap="round" y1="51.588" x1="6.3784" y2="40.732" stroke-width="1.728" x2="6.3784"/>
  </g>
  <g partID="109540">
   <line stroke="black" stroke-linecap="round" y1="22.644" x1="71.1784" y2="18.988" stroke-width="1.728" x2="71.1784"/>
  </g>
  <g partID="84960">
   <line stroke="black" stroke-linecap="round" y1="8.298" x1="56.7784" y2="2.888" stroke-width="1.728" x2="56.7784"/>
  </g>
  <g partID="411850">
   <line stroke="black" stroke-linecap="round" y1="2.888" x1="56.7784" y2="2.888" stroke-width="1.728" x2="6.3784"/>
  </g>
  <g partID="411580">
   <line stroke="black" stroke-linecap="round" y1="2.888" x1="6.3784" y2="8.244" stroke-width="1.728" x2="6.3784"/>
  </g>
  <g partID="39570">
   <line stroke="black" stroke-linecap="round" y1="67.688" x1="69.4784" y2="67.688" stroke-width="1.728" x2="65.7684"/>
  </g>
  <g partID="29940">
   <line stroke="black" stroke-linecap="round" y1="65.988" x1="71.1784" y2="62.332" stroke-width="1.728" x2="71.1784"/>
  </g>
  <g partID="12180">
   <line stroke="black" stroke-linecap="round" y1="55.078" x1="121.578" y2="58.644" stroke-width="1.728" x2="121.578"/>
  </g>
  <g partID="12250">
   <line stroke="black" stroke-linecap="round" y1="55.078" x1="114.378" y2="58.644" stroke-width="1.728" x2="114.378"/>
  </g>
  <g partID="12320">
   <line stroke="black" stroke-linecap="round" y1="55.078" x1="107.178" y2="58.644" stroke-width="1.728" x2="107.178"/>
  </g>
  <g partID="12390">
   <line stroke="black" stroke-linecap="round" y1="55.078" x1="99.9784" y2="58.644" stroke-width="1.728" x2="99.9784"/>
  </g>
  <g partID="12460">
   <line stroke="black" stroke-linecap="round" y1="55.078" x1="92.7784" y2="58.644" stroke-width="1.728" x2="92.7784"/>
  </g>
  <g partID="12530">
   <line stroke="black" stroke-linecap="round" y1="55.078" x1="85.5784" y2="58.644" stroke-width="1.728" x2="85.5784"/>
  </g>
  <g partID="12600">
   <line stroke="black" stroke-linecap="round" y1="55.078" x1="78.3784" y2="58.644" stroke-width="1.728" x2="78.3784"/>
  </g>
  <g partID="12710">
   <line stroke="black" stroke-linecap="round" y1="55.078" x1="71.1784" y2="58.644" stroke-width="1.728" x2="71.1784"/>
  </g>
  <g partID="12780">
   <line stroke="black" stroke-linecap="round" y1="55.078" x1="63.9784" y2="58.644" stroke-width="1.728" x2="63.9784"/>
  </g>
  <g partID="12850">
   <line stroke="black" stroke-linecap="round" y1="55.078" x1="56.7784" y2="58.644" stroke-width="1.728" x2="56.7784"/>
  </g>
  <g partID="12920">
   <line stroke="black" stroke-linecap="round" y1="55.078" x1="49.5784" y2="58.644" stroke-width="1.728" x2="49.5784"/>
  </g>
  <g partID="12990">
   <line stroke="black" stroke-linecap="round" y1="55.078" x1="42.3784" y2="58.644" stroke-width="1.728" x2="42.3784"/>
  </g>
  <g partID="13060">
   <line stroke="black" stroke-linecap="round" y1="55.078" x1="35.1784" y2="58.644" stroke-width="1.728" x2="35.1784"/>
  </g>
  <g partID="13130">
   <line stroke="black" stroke-linecap="round" y1="55.078" x1="27.9784" y2="58.644" stroke-width="1.728" x2="27.9784"/>
  </g>
  <g partID="13200">
   <line stroke="black" stroke-linecap="round" y1="26.332" x1="121.578" y2="29.898" stroke-width="1.728" x2="121.578"/>
  </g>
  <g partID="13270">
   <line stroke="black" stroke-linecap="round" y1="26.332" x1="114.378" y2="29.898" stroke-width="1.728" x2="114.378"/>
  </g>
  <g partID="13340">
   <line stroke="black" stroke-linecap="round" y1="26.332" x1="107.178" y2="29.898" stroke-width="1.728" x2="107.178"/>
  </g>
  <g partID="13410">
   <line stroke="black" stroke-linecap="round" y1="26.332" x1="99.9784" y2="29.898" stroke-width="1.728" x2="99.9784"/>
  </g>
  <g partID="13480">
   <line stroke="black" stroke-linecap="round" y1="26.332" x1="92.7784" y2="29.898" stroke-width="1.728" x2="92.7784"/>
  </g>
  <g partID="13550">
   <line stroke="black" stroke-linecap="round" y1="26.332" x1="85.5784" y2="29.898" stroke-width="1.728" x2="85.5784"/>
  </g>
  <g partID="13620">
   <line stroke="black" stroke-linecap="round" y1="26.332" x1="78.3784" y2="29.898" stroke-width="1.728" x2="78.3784"/>
  </g>
  <g partID="13690">
   <line stroke="black" stroke-linecap="round" y1="26.332" x1="71.1784" y2="29.898" stroke-width="1.728" x2="71.1784"/>
  </g>
  <g partID="13760">
   <line stroke="black" stroke-linecap="round" y1="26.332" x1="63.9784" y2="29.898" stroke-width="1.728" x2="63.9784"/>
  </g>
  <g partID="13830">
   <line stroke="black" stroke-linecap="round" y1="26.332" x1="56.7784" y2="29.898" stroke-width="1.728" x2="56.7784"/>
  </g>
  <g partID="13900">
   <line stroke="black" stroke-linecap="round" y1="26.332" x1="49.5784" y2="29.898" stroke-width="1.728" x2="49.5784"/>
  </g>
  <g partID="13970">
   <line stroke="black" stroke-linecap="round" y1="26.332" x1="42.3784" y2="29.898" stroke-width="1.728" x2="42.3784"/>
  </g>
  <g partID="14040">
   <line stroke="black" stroke-linecap="round" y1="26.332" x1="35.1784" y2="29.898" stroke-width="1.728" x2="35.1784"/>
  </g>
  <g partID="14110">
   <line stroke="black" stroke-linecap="round" y1="26.332" x1="27.9784" y2="29.898" stroke-width="1.728" x2="27.9784"/>
  </g>
  <g partID="446840">
   <line stroke="black" stroke-linecap="round" y1="105.436" x1="51.9186" y2="110.888" stroke-width="1.728" x2="53.1169"/>
  </g>
  <g partID="448370">
   <line stroke="black" stroke-linecap="round" y1="70.1415" x1="121.734" y2="88.704" stroke-width="1.728" x2="83.808"/>
  </g>
 </g>
</svg>
